G04 #@! TF.GenerationSoftware,KiCad,Pcbnew,(6.0.1-0)*
G04 #@! TF.CreationDate,2023-09-18T16:52:29-04:00*
G04 #@! TF.ProjectId,Breadboard-1,42726561-6462-46f6-9172-642d312e6b69,rev?*
G04 #@! TF.SameCoordinates,Original*
G04 #@! TF.FileFunction,Copper,L1,Top*
G04 #@! TF.FilePolarity,Positive*
%FSLAX46Y46*%
G04 Gerber Fmt 4.6, Leading zero omitted, Abs format (unit mm)*
G04 Created by KiCad (PCBNEW (6.0.1-0)) date 2023-09-18 16:52:29*
%MOMM*%
%LPD*%
G01*
G04 APERTURE LIST*
G04 Aperture macros list*
%AMRoundRect*
0 Rectangle with rounded corners*
0 $1 Rounding radius*
0 $2 $3 $4 $5 $6 $7 $8 $9 X,Y pos of 4 corners*
0 Add a 4 corners polygon primitive as box body*
4,1,4,$2,$3,$4,$5,$6,$7,$8,$9,$2,$3,0*
0 Add four circle primitives for the rounded corners*
1,1,$1+$1,$2,$3*
1,1,$1+$1,$4,$5*
1,1,$1+$1,$6,$7*
1,1,$1+$1,$8,$9*
0 Add four rect primitives between the rounded corners*
20,1,$1+$1,$2,$3,$4,$5,0*
20,1,$1+$1,$4,$5,$6,$7,0*
20,1,$1+$1,$6,$7,$8,$9,0*
20,1,$1+$1,$8,$9,$2,$3,0*%
G04 Aperture macros list end*
G04 #@! TA.AperFunction,SMDPad,CuDef*
%ADD10R,0.450000X0.600000*%
G04 #@! TD*
G04 #@! TA.AperFunction,SMDPad,CuDef*
%ADD11RoundRect,0.250000X0.262500X0.450000X-0.262500X0.450000X-0.262500X-0.450000X0.262500X-0.450000X0*%
G04 #@! TD*
G04 #@! TA.AperFunction,SMDPad,CuDef*
%ADD12RoundRect,0.150000X-0.587500X-0.150000X0.587500X-0.150000X0.587500X0.150000X-0.587500X0.150000X0*%
G04 #@! TD*
G04 #@! TA.AperFunction,ComponentPad*
%ADD13R,1.700000X1.700000*%
G04 #@! TD*
G04 #@! TA.AperFunction,ComponentPad*
%ADD14O,1.700000X1.700000*%
G04 #@! TD*
G04 #@! TA.AperFunction,SMDPad,CuDef*
%ADD15RoundRect,0.250000X-0.250000X-0.475000X0.250000X-0.475000X0.250000X0.475000X-0.250000X0.475000X0*%
G04 #@! TD*
G04 #@! TA.AperFunction,SMDPad,CuDef*
%ADD16RoundRect,0.150000X0.587500X0.150000X-0.587500X0.150000X-0.587500X-0.150000X0.587500X-0.150000X0*%
G04 #@! TD*
G04 #@! TA.AperFunction,SMDPad,CuDef*
%ADD17RoundRect,0.250000X-0.450000X0.262500X-0.450000X-0.262500X0.450000X-0.262500X0.450000X0.262500X0*%
G04 #@! TD*
G04 #@! TA.AperFunction,SMDPad,CuDef*
%ADD18RoundRect,0.250000X-0.262500X-0.450000X0.262500X-0.450000X0.262500X0.450000X-0.262500X0.450000X0*%
G04 #@! TD*
G04 #@! TA.AperFunction,SMDPad,CuDef*
%ADD19RoundRect,0.243750X0.243750X0.456250X-0.243750X0.456250X-0.243750X-0.456250X0.243750X-0.456250X0*%
G04 #@! TD*
G04 #@! TA.AperFunction,SMDPad,CuDef*
%ADD20RoundRect,0.250000X-0.362500X-1.425000X0.362500X-1.425000X0.362500X1.425000X-0.362500X1.425000X0*%
G04 #@! TD*
G04 #@! TA.AperFunction,SMDPad,CuDef*
%ADD21R,0.600000X0.450000*%
G04 #@! TD*
G04 #@! TA.AperFunction,SMDPad,CuDef*
%ADD22R,1.500000X1.000000*%
G04 #@! TD*
G04 #@! TA.AperFunction,SMDPad,CuDef*
%ADD23RoundRect,0.250000X-0.475000X0.250000X-0.475000X-0.250000X0.475000X-0.250000X0.475000X0.250000X0*%
G04 #@! TD*
G04 #@! TA.AperFunction,SMDPad,CuDef*
%ADD24RoundRect,0.125000X0.825000X0.125000X-0.825000X0.125000X-0.825000X-0.125000X0.825000X-0.125000X0*%
G04 #@! TD*
G04 #@! TA.AperFunction,SMDPad,CuDef*
%ADD25RoundRect,0.250000X0.475000X-0.250000X0.475000X0.250000X-0.475000X0.250000X-0.475000X-0.250000X0*%
G04 #@! TD*
G04 #@! TA.AperFunction,SMDPad,CuDef*
%ADD26RoundRect,0.250000X0.450000X-0.262500X0.450000X0.262500X-0.450000X0.262500X-0.450000X-0.262500X0*%
G04 #@! TD*
G04 #@! TA.AperFunction,ViaPad*
%ADD27C,0.600000*%
G04 #@! TD*
G04 #@! TA.AperFunction,Conductor*
%ADD28C,0.381000*%
G04 #@! TD*
G04 #@! TA.AperFunction,Conductor*
%ADD29C,0.508000*%
G04 #@! TD*
G04 APERTURE END LIST*
D10*
X77978000Y-110651000D03*
X77978000Y-108551000D03*
D11*
X69492500Y-66040000D03*
X67667500Y-66040000D03*
D12*
X77802500Y-77790000D03*
X77802500Y-79690000D03*
X79677500Y-78740000D03*
D13*
X99060000Y-66035000D03*
D14*
X99060000Y-68575000D03*
X99060000Y-71115000D03*
X99060000Y-73655000D03*
X99060000Y-76195000D03*
X99060000Y-78735000D03*
X99060000Y-81275000D03*
D15*
X85410000Y-69646800D03*
X87310000Y-69646800D03*
D16*
X64437500Y-82230000D03*
X64437500Y-80330000D03*
X62562500Y-81280000D03*
D12*
X82882500Y-77790000D03*
X82882500Y-79690000D03*
X84757500Y-78740000D03*
D17*
X82296000Y-53848000D03*
X82296000Y-55673000D03*
D18*
X52427500Y-71120000D03*
X54252500Y-71120000D03*
D17*
X78740000Y-81637500D03*
X78740000Y-83462500D03*
D18*
X87987500Y-91440000D03*
X89812500Y-91440000D03*
X52427500Y-55880000D03*
X54252500Y-55880000D03*
D13*
X82164000Y-99060000D03*
D14*
X84704000Y-99060000D03*
D11*
X69492500Y-81280000D03*
X67667500Y-81280000D03*
D19*
X59357500Y-66040000D03*
X57482500Y-66040000D03*
D15*
X91760000Y-74930000D03*
X93660000Y-74930000D03*
D20*
X73237500Y-99060000D03*
X79162500Y-99060000D03*
D21*
X94708000Y-86360000D03*
X96808000Y-86360000D03*
D16*
X64437500Y-66990000D03*
X64437500Y-65090000D03*
X62562500Y-66040000D03*
X93647500Y-79690000D03*
X93647500Y-77790000D03*
X91772500Y-78740000D03*
D11*
X89812500Y-96266000D03*
X87987500Y-96266000D03*
X69492500Y-71120000D03*
X67667500Y-71120000D03*
X69492500Y-86360000D03*
X67667500Y-86360000D03*
D10*
X74422000Y-110617000D03*
X74422000Y-108517000D03*
D18*
X52427500Y-91440000D03*
X54252500Y-91440000D03*
D22*
X74450000Y-93280000D03*
X74450000Y-94680000D03*
X77950000Y-94680000D03*
X77950000Y-93280000D03*
D23*
X80010000Y-53810500D03*
X80010000Y-55710500D03*
D18*
X52427500Y-76200000D03*
X54252500Y-76200000D03*
D10*
X74422000Y-114173000D03*
X74422000Y-112073000D03*
D19*
X59357500Y-91440000D03*
X57482500Y-91440000D03*
D12*
X82882500Y-85410000D03*
X82882500Y-87310000D03*
X84757500Y-86360000D03*
D18*
X52427500Y-86360000D03*
X54252500Y-86360000D03*
D24*
X87320000Y-67695000D03*
X87320000Y-67045000D03*
X87320000Y-66395000D03*
X87320000Y-65745000D03*
X87320000Y-65095000D03*
X87320000Y-64445000D03*
X87320000Y-63795000D03*
X87320000Y-63145000D03*
X87320000Y-62495000D03*
X87320000Y-61845000D03*
X80320000Y-61845000D03*
X80320000Y-62495000D03*
X80320000Y-63145000D03*
X80320000Y-63795000D03*
X80320000Y-64445000D03*
X80320000Y-65095000D03*
X80320000Y-65745000D03*
X80320000Y-66395000D03*
X80320000Y-67045000D03*
X80320000Y-67695000D03*
D19*
X59357500Y-81280000D03*
X57482500Y-81280000D03*
D16*
X64437500Y-77150000D03*
X64437500Y-75250000D03*
X62562500Y-76200000D03*
D11*
X69492500Y-76200000D03*
X67667500Y-76200000D03*
D18*
X52427500Y-81280000D03*
X54252500Y-81280000D03*
D16*
X79677500Y-74610000D03*
X79677500Y-72710000D03*
X77802500Y-73660000D03*
D17*
X77724000Y-53848000D03*
X77724000Y-55673000D03*
D19*
X59357500Y-71120000D03*
X57482500Y-71120000D03*
D15*
X91760000Y-82550000D03*
X93660000Y-82550000D03*
D19*
X59357500Y-86360000D03*
X57482500Y-86360000D03*
D18*
X79859500Y-93980000D03*
X81684500Y-93980000D03*
D16*
X64437500Y-92390000D03*
X64437500Y-90490000D03*
X62562500Y-91440000D03*
D25*
X88900000Y-84770000D03*
X88900000Y-82870000D03*
D19*
X59357500Y-55880000D03*
X57482500Y-55880000D03*
D18*
X52427500Y-66040000D03*
X54252500Y-66040000D03*
D17*
X89154000Y-75287500D03*
X89154000Y-77112500D03*
D11*
X89812500Y-88900000D03*
X87987500Y-88900000D03*
D18*
X87987500Y-98552000D03*
X89812500Y-98552000D03*
D25*
X73660000Y-84770000D03*
X73660000Y-82870000D03*
D16*
X64437500Y-87310000D03*
X64437500Y-85410000D03*
X62562500Y-86360000D03*
D10*
X77978000Y-114173000D03*
X77978000Y-112073000D03*
D26*
X83820000Y-83462500D03*
X83820000Y-81637500D03*
D19*
X59357500Y-60960000D03*
X57482500Y-60960000D03*
D12*
X77802500Y-85410000D03*
X77802500Y-87310000D03*
X79677500Y-86360000D03*
D18*
X52427500Y-60960000D03*
X54252500Y-60960000D03*
D11*
X89812500Y-93980000D03*
X87987500Y-93980000D03*
X69492500Y-91440000D03*
X67667500Y-91440000D03*
D17*
X73660000Y-75287500D03*
X73660000Y-77112500D03*
D16*
X64437500Y-72070000D03*
X64437500Y-70170000D03*
X62562500Y-71120000D03*
D19*
X59357500Y-76200000D03*
X57482500Y-76200000D03*
D16*
X84757500Y-74610000D03*
X84757500Y-72710000D03*
X82882500Y-73660000D03*
D13*
X73660000Y-54864000D03*
D14*
X71120000Y-54864000D03*
X68580000Y-54864000D03*
X66040000Y-54864000D03*
X63500000Y-54864000D03*
D13*
X86360000Y-54864000D03*
D14*
X88900000Y-54864000D03*
X91440000Y-54864000D03*
X93980000Y-54864000D03*
X96520000Y-54864000D03*
D13*
X69850000Y-105410000D03*
D14*
X69850000Y-107950000D03*
X69850000Y-110490000D03*
X69850000Y-113030000D03*
X69850000Y-115570000D03*
X69850000Y-118110000D03*
D13*
X82550000Y-105410000D03*
D14*
X82550000Y-107950000D03*
X82550000Y-110490000D03*
X82550000Y-113030000D03*
X82550000Y-115570000D03*
X82550000Y-118110000D03*
D27*
X82677000Y-91059000D03*
X79502000Y-90424000D03*
X60706000Y-66040000D03*
X60706000Y-71120000D03*
X60706000Y-76200000D03*
X60706000Y-81280000D03*
X74422000Y-109220000D03*
X93726000Y-81534000D03*
X64439800Y-66014600D03*
X84516000Y-69646800D03*
X86106000Y-72644000D03*
X80010000Y-52832000D03*
X73660000Y-90424000D03*
X80300000Y-68275000D03*
X76708000Y-87299800D03*
X64439800Y-71094600D03*
X64432756Y-81261644D03*
X86868000Y-96266000D03*
X77959912Y-109220000D03*
X64439800Y-76174600D03*
X78359000Y-72720200D03*
X84516000Y-70408800D03*
X64439800Y-86334600D03*
X81000000Y-68275000D03*
X93726000Y-75946000D03*
X86868000Y-91440000D03*
X79625000Y-68275000D03*
X60452000Y-55880000D03*
X84201000Y-87299800D03*
X60452000Y-60960000D03*
X93726000Y-78994000D03*
X76708000Y-90424000D03*
X64439800Y-91414600D03*
X84516000Y-68884800D03*
X60706000Y-86360000D03*
X60706000Y-91440000D03*
X67310000Y-57658000D03*
X85598000Y-62484000D03*
X81280000Y-74676000D03*
X78740000Y-80772000D03*
X85598000Y-63500000D03*
X95758000Y-77470000D03*
X81788000Y-62484000D03*
X90170000Y-64135000D03*
X87376000Y-74676000D03*
X89916000Y-65405000D03*
X84963000Y-81661000D03*
D28*
X61214000Y-92710000D02*
X68580000Y-100076000D01*
X91760000Y-78752500D02*
X91772500Y-78740000D01*
X69850000Y-118110000D02*
X70866000Y-118110000D01*
X77978000Y-96520000D02*
X79248000Y-96520000D01*
X79248000Y-96520000D02*
X80772000Y-94996000D01*
X52427500Y-91440000D02*
X53697500Y-92710000D01*
X52427500Y-86360000D02*
X52427500Y-81280000D01*
X76166000Y-114173000D02*
X77978000Y-114173000D01*
X73660000Y-79790000D02*
X74710000Y-78740000D01*
X91760000Y-82550000D02*
X91694000Y-82550000D01*
X74422000Y-114554000D02*
X74422000Y-114173000D01*
X52427500Y-91440000D02*
X52427500Y-86360000D01*
X74710000Y-78740000D02*
X73660000Y-77690000D01*
X73660000Y-82870000D02*
X73660000Y-79790000D01*
X82550000Y-118110000D02*
X81534000Y-118110000D01*
X52427500Y-81280000D02*
X52427500Y-78788900D01*
X52427500Y-76200000D02*
X52427500Y-71120000D01*
X81534000Y-118110000D02*
X77978000Y-114554000D01*
X84757500Y-78740000D02*
X87884000Y-78740000D01*
X52427500Y-78788900D02*
X52427500Y-76200000D01*
X77978000Y-114554000D02*
X77978000Y-114173000D01*
X73660000Y-77690000D02*
X73660000Y-77112500D01*
X70866000Y-118110000D02*
X74422000Y-114554000D01*
X76166000Y-98332000D02*
X77978000Y-96520000D01*
X88900000Y-77724000D02*
X87884000Y-78740000D01*
X53697500Y-92710000D02*
X61214000Y-92710000D01*
X74422000Y-114173000D02*
X76166000Y-114173000D01*
X91694000Y-82550000D02*
X88900000Y-79756000D01*
X89154000Y-77112500D02*
X88900000Y-77366500D01*
X80772000Y-94996000D02*
X80772000Y-79375000D01*
X79677500Y-78740000D02*
X81407000Y-78740000D01*
X80772000Y-79375000D02*
X81257489Y-78889511D01*
X76166000Y-114173000D02*
X76166000Y-98332000D01*
X79677500Y-78740000D02*
X74710000Y-78740000D01*
X81407000Y-78740000D02*
X84757500Y-78740000D01*
X68580000Y-100076000D02*
X68580000Y-116840000D01*
X68580000Y-116840000D02*
X69850000Y-118110000D01*
X88900000Y-82870000D02*
X88900000Y-79756000D01*
X88900000Y-79756000D02*
X87884000Y-78740000D01*
X52427500Y-71120000D02*
X52427500Y-66040000D01*
X91760000Y-82550000D02*
X91760000Y-78752500D01*
X88900000Y-77366500D02*
X88900000Y-77724000D01*
X93538000Y-77790000D02*
X91760000Y-76012000D01*
X88569800Y-69646800D02*
X87310000Y-69646800D01*
X94770020Y-78912520D02*
X94770020Y-86297980D01*
X91760000Y-74930000D02*
X91760000Y-72837000D01*
X71120000Y-54864000D02*
X72644000Y-53340000D01*
X91760000Y-76012000D02*
X91760000Y-74930000D01*
X93647500Y-77790000D02*
X94770020Y-78912520D01*
X73914000Y-57658000D02*
X71120000Y-54864000D01*
X93647500Y-77790000D02*
X93538000Y-77790000D01*
X77216000Y-53340000D02*
X77724000Y-53848000D01*
X87310000Y-69646800D02*
X87310000Y-69631600D01*
X87310000Y-69631600D02*
X84074000Y-66395600D01*
X72644000Y-53340000D02*
X77216000Y-53340000D01*
X94770020Y-86297980D02*
X94708000Y-86360000D01*
X87320000Y-69636800D02*
X87310000Y-69646800D01*
X81896489Y-57658000D02*
X73914000Y-57658000D01*
X91760000Y-72837000D02*
X88569800Y-69646800D01*
X84074000Y-59835511D02*
X81896489Y-57658000D01*
X84074000Y-66395600D02*
X84074000Y-59835511D01*
X87320000Y-67695000D02*
X87320000Y-69636800D01*
X82296000Y-56896000D02*
X75692000Y-56896000D01*
X82296000Y-55673000D02*
X82296000Y-56896000D01*
X84709000Y-59309000D02*
X82296000Y-56896000D01*
X85942497Y-65745000D02*
X84709000Y-64511503D01*
X75692000Y-56896000D02*
X73660000Y-54864000D01*
X84709000Y-64511503D02*
X84709000Y-59309000D01*
X87320000Y-65745000D02*
X85942497Y-65745000D01*
X69850000Y-105410000D02*
X71120000Y-105410000D01*
X80010000Y-86027500D02*
X80010000Y-80772000D01*
X73237500Y-92497500D02*
X74295000Y-91440000D01*
X78928000Y-79690000D02*
X77802500Y-79690000D01*
X73237500Y-99060000D02*
X73237500Y-94656500D01*
X78486000Y-91440000D02*
X79502000Y-90424000D01*
X74450000Y-94680000D02*
X73261000Y-94680000D01*
X87987500Y-93980000D02*
X85598000Y-93980000D01*
X79677500Y-86360000D02*
X80010000Y-86027500D01*
X73237500Y-103292500D02*
X73237500Y-99060000D01*
X80010000Y-86692500D02*
X80010000Y-89916000D01*
X85598000Y-93980000D02*
X82677000Y-91059000D01*
X80010000Y-89916000D02*
X79502000Y-90424000D01*
X77950000Y-94680000D02*
X74450000Y-94680000D01*
X73237500Y-94656500D02*
X73237500Y-92497500D01*
X71120000Y-105410000D02*
X73237500Y-103292500D01*
X73261000Y-94680000D02*
X73237500Y-94656500D01*
X80010000Y-80772000D02*
X78928000Y-79690000D01*
X74295000Y-91440000D02*
X78486000Y-91440000D01*
X79677500Y-86360000D02*
X80010000Y-86692500D01*
X82550000Y-105410000D02*
X82550000Y-103759000D01*
X83058000Y-93980000D02*
X81684500Y-93980000D01*
X81534000Y-88900001D02*
X81534000Y-93829500D01*
X84704000Y-99060000D02*
X84704000Y-95626000D01*
X84704000Y-95626000D02*
X83058000Y-93980000D01*
X81534000Y-88900001D02*
X87987500Y-88900000D01*
X82882500Y-79690000D02*
X81534000Y-81038500D01*
X82550000Y-103759000D02*
X84704000Y-101605000D01*
X81534000Y-81038500D02*
X81534000Y-88900001D01*
X81534000Y-93829500D02*
X81684500Y-93980000D01*
X84704000Y-101605000D02*
X84704000Y-99060000D01*
X81788000Y-86360000D02*
X84757500Y-86360000D01*
X74422000Y-112073000D02*
X74422000Y-110617000D01*
X73347000Y-112073000D02*
X74422000Y-112073000D01*
X69850000Y-115570000D02*
X73347000Y-112073000D01*
X79053000Y-112073000D02*
X77978000Y-112073000D01*
X82550000Y-115570000D02*
X83820000Y-114300000D01*
X82550000Y-115570000D02*
X79053000Y-112073000D01*
X83820000Y-114300000D02*
X83820000Y-104394000D01*
X87987500Y-100226500D02*
X87987500Y-98552000D01*
X77978000Y-112073000D02*
X77978000Y-110617000D01*
X83820000Y-104394000D02*
X87987500Y-100226500D01*
X62562500Y-66040000D02*
X59357500Y-66040000D01*
X54252500Y-55880000D02*
X57482500Y-55880000D01*
X62562500Y-71120000D02*
X59357500Y-71120000D01*
X54252500Y-60960000D02*
X57482500Y-60960000D01*
X62562500Y-76200000D02*
X59357500Y-76200000D01*
X54252500Y-66040000D02*
X57482500Y-66040000D01*
X60706000Y-81280000D02*
X59357500Y-81280000D01*
X62562500Y-81280000D02*
X60706000Y-81280000D01*
D29*
X77978000Y-109201912D02*
X77959912Y-109220000D01*
X82882500Y-87310000D02*
X84190800Y-87310000D01*
X78369200Y-72710000D02*
X78359000Y-72720200D01*
X64439800Y-90492300D02*
X64437500Y-90490000D01*
X87987500Y-91440000D02*
X86868000Y-91440000D01*
X77802500Y-87310000D02*
X76718200Y-87310000D01*
X64437500Y-65090000D02*
X64437500Y-66012300D01*
X64439800Y-71094600D02*
X64439800Y-70172300D01*
X64437500Y-66012300D02*
X64439800Y-66014600D01*
X64439800Y-91414600D02*
X64439800Y-90492300D01*
X64439800Y-70172300D02*
X64437500Y-70170000D01*
X86040000Y-72710000D02*
X86106000Y-72644000D01*
X93660000Y-74930000D02*
X93660000Y-75880000D01*
X77978000Y-108551000D02*
X77978000Y-109201912D01*
X64437500Y-80330000D02*
X64437500Y-81256900D01*
X88900000Y-84770000D02*
X86370200Y-87299800D01*
X80010000Y-53810500D02*
X80010000Y-52832000D01*
X64437500Y-81256900D02*
X64432756Y-81261644D01*
X74853800Y-87299800D02*
X76708000Y-87299800D01*
X59357500Y-60960000D02*
X60452000Y-60960000D01*
X93660000Y-82550000D02*
X93726000Y-82484000D01*
X93726000Y-82484000D02*
X93726000Y-81534000D01*
X64439800Y-76174600D02*
X64439800Y-75252300D01*
X64439800Y-75252300D02*
X64437500Y-75250000D01*
X81000000Y-68275000D02*
X83906200Y-68275000D01*
X64439800Y-86334600D02*
X64439800Y-85412300D01*
X73660000Y-90424000D02*
X76708000Y-90424000D01*
X93726000Y-79611500D02*
X93726000Y-78994000D01*
X84190800Y-87310000D02*
X84201000Y-87299800D01*
X84757500Y-72710000D02*
X86040000Y-72710000D01*
X93647500Y-79690000D02*
X93726000Y-79611500D01*
X87987500Y-96266000D02*
X86868000Y-96266000D01*
X76718200Y-87310000D02*
X76708000Y-87299800D01*
X93660000Y-75880000D02*
X93726000Y-75946000D01*
X73660000Y-86106000D02*
X74853800Y-87299800D01*
X64439800Y-85412300D02*
X64437500Y-85410000D01*
X83906200Y-68275000D02*
X84516000Y-68884800D01*
X74422000Y-108517000D02*
X74422000Y-109220000D01*
X79677500Y-72710000D02*
X78369200Y-72710000D01*
X86370200Y-87299800D02*
X84201000Y-87299800D01*
X73660000Y-84770000D02*
X73660000Y-86106000D01*
X59357500Y-55880000D02*
X60452000Y-55880000D01*
D28*
X54252500Y-76200000D02*
X57482500Y-76200000D01*
X62562500Y-86360000D02*
X59357500Y-86360000D01*
X57482500Y-86360000D02*
X54252500Y-86360000D01*
X59357500Y-91440000D02*
X62562500Y-91440000D01*
X57482500Y-91440000D02*
X54252500Y-91440000D01*
X54252500Y-71120000D02*
X57482500Y-71120000D01*
X71374000Y-73406000D02*
X78385000Y-66395000D01*
X80645000Y-59182000D02*
X67310000Y-59182000D01*
X82804000Y-61341000D02*
X80645000Y-59182000D01*
X66040000Y-57912000D02*
X66040000Y-54864000D01*
X80320000Y-66395000D02*
X81690003Y-66395000D01*
X82804000Y-65281003D02*
X82804000Y-61341000D01*
X67310000Y-59182000D02*
X66040000Y-57912000D01*
X81690003Y-66395000D02*
X82804000Y-65281003D01*
X69492500Y-86360000D02*
X71374000Y-84478500D01*
X78385000Y-66395000D02*
X80320000Y-66395000D01*
X71374000Y-84478500D02*
X71374000Y-73406000D01*
X69492500Y-91440000D02*
X72136000Y-88796500D01*
X82550000Y-67056000D02*
X83439000Y-66167000D01*
X68072000Y-58420000D02*
X67310000Y-57658000D01*
X82296000Y-67056000D02*
X82550000Y-67056000D01*
X83439000Y-60579000D02*
X81280000Y-58420000D01*
X80320000Y-67045000D02*
X82285000Y-67045000D01*
X81280000Y-58420000D02*
X68072000Y-58420000D01*
X83439000Y-66167000D02*
X83439000Y-60579000D01*
X72136000Y-73914000D02*
X79005000Y-67045000D01*
X72136000Y-88796500D02*
X72136000Y-73914000D01*
X79005000Y-67045000D02*
X80320000Y-67045000D01*
X82285000Y-67045000D02*
X82296000Y-67056000D01*
X87320000Y-62495000D02*
X95520000Y-62495000D01*
X85609000Y-62495000D02*
X85598000Y-62484000D01*
X79677500Y-74610000D02*
X81214000Y-74610000D01*
X81214000Y-74610000D02*
X81280000Y-74676000D01*
X95520000Y-62495000D02*
X99060000Y-66035000D01*
X87320000Y-62495000D02*
X85609000Y-62495000D01*
X85953000Y-63145000D02*
X85598000Y-63500000D01*
X93578169Y-63093169D02*
X99060000Y-68575000D01*
X78740000Y-81637500D02*
X78740000Y-80772000D01*
X87950000Y-63125000D02*
X86493000Y-63125000D01*
X87320000Y-63145000D02*
X85953000Y-63145000D01*
X87371831Y-63093169D02*
X93578169Y-63093169D01*
X87320000Y-63145000D02*
X87371831Y-63093169D01*
X88245110Y-67045000D02*
X95758000Y-74557890D01*
X95758000Y-74557890D02*
X95758000Y-77470000D01*
X87320000Y-67045000D02*
X88245110Y-67045000D01*
X93853000Y-88900000D02*
X95758000Y-86995000D01*
X89812500Y-91440000D02*
X89812500Y-88900000D01*
X95758000Y-86995000D02*
X95758000Y-77470000D01*
X89812500Y-93980000D02*
X89812500Y-91440000D01*
X89812500Y-88900000D02*
X93853000Y-88900000D01*
X80320000Y-61845000D02*
X79943000Y-61468000D01*
X61468000Y-57150000D02*
X53697500Y-57150000D01*
X79943000Y-61468000D02*
X65786000Y-61468000D01*
X65786000Y-61468000D02*
X61468000Y-57150000D01*
X53697500Y-57150000D02*
X52427500Y-55880000D01*
X71882000Y-66040000D02*
X69492500Y-66040000D01*
X80320000Y-63795000D02*
X74127000Y-63795000D01*
X74127000Y-63795000D02*
X71882000Y-66040000D01*
X69492500Y-70207500D02*
X69492500Y-71120000D01*
X80320000Y-64445000D02*
X75255000Y-64445000D01*
X75255000Y-64445000D02*
X69492500Y-70207500D01*
X69596000Y-76096500D02*
X69492500Y-76200000D01*
X80320000Y-65095000D02*
X77145000Y-65095000D01*
X77145000Y-65095000D02*
X69596000Y-72644000D01*
X69596000Y-72644000D02*
X69596000Y-76096500D01*
X77623000Y-63145000D02*
X76708000Y-62230000D01*
X76708000Y-62230000D02*
X53697500Y-62230000D01*
X53697500Y-62230000D02*
X52427500Y-60960000D01*
X80320000Y-63145000D02*
X77623000Y-63145000D01*
X80320000Y-65745000D02*
X77765000Y-65745000D01*
X70612000Y-80160500D02*
X69492500Y-81280000D01*
X70612000Y-72898000D02*
X70612000Y-80160500D01*
X77765000Y-65745000D02*
X70612000Y-72898000D01*
X57482500Y-81280000D02*
X54252500Y-81280000D01*
X77950000Y-93280000D02*
X79159500Y-93280000D01*
X74450000Y-93280000D02*
X77950000Y-93280000D01*
X79159500Y-93280000D02*
X79859500Y-93980000D01*
X91410000Y-56672000D02*
X91410000Y-54864000D01*
X87320000Y-61845000D02*
X87320000Y-60762000D01*
X87320000Y-60762000D02*
X91410000Y-56672000D01*
X96808000Y-86360000D02*
X96808000Y-78823000D01*
X89509000Y-66395000D02*
X87320000Y-66395000D01*
X96808000Y-89270500D02*
X89812500Y-96266000D01*
X96808000Y-73694000D02*
X89509000Y-66395000D01*
X96808000Y-78823000D02*
X96896000Y-78735000D01*
X99060000Y-78735000D02*
X96896000Y-78735000D01*
X89812500Y-98552000D02*
X89812500Y-96266000D01*
X96808000Y-78823000D02*
X96808000Y-73694000D01*
X96808000Y-86360000D02*
X96808000Y-89270500D01*
X80320000Y-62495000D02*
X81777000Y-62495000D01*
X81777000Y-62495000D02*
X81788000Y-62484000D01*
X79972500Y-55673000D02*
X80010000Y-55710500D01*
X80433500Y-55710500D02*
X82296000Y-53848000D01*
X77724000Y-55673000D02*
X79972500Y-55673000D01*
X80010000Y-55710500D02*
X80433500Y-55710500D01*
X92080000Y-64135000D02*
X90170000Y-64135000D01*
X89830000Y-63795000D02*
X90170000Y-64135000D01*
X99060000Y-71115000D02*
X92080000Y-64135000D01*
X87310000Y-74610000D02*
X87376000Y-74676000D01*
X87320000Y-63795000D02*
X89830000Y-63795000D01*
X84757500Y-74610000D02*
X87310000Y-74610000D01*
X84963000Y-81661000D02*
X83843500Y-81661000D01*
X88825610Y-64445000D02*
X89785610Y-65405000D01*
X83843500Y-81661000D02*
X83820000Y-81637500D01*
X87320000Y-64445000D02*
X88825610Y-64445000D01*
X99055000Y-73655000D02*
X90805000Y-65405000D01*
X90805000Y-65405000D02*
X89916000Y-65405000D01*
X99060000Y-73655000D02*
X99055000Y-73655000D01*
X89785610Y-65405000D02*
X89916000Y-65405000D01*
X77802500Y-73660000D02*
X77802500Y-77790000D01*
X75287500Y-73660000D02*
X77802500Y-73660000D01*
X73660000Y-75287500D02*
X75287500Y-73660000D01*
X82882500Y-73660000D02*
X82882500Y-77790000D01*
X82882500Y-73660000D02*
X87526500Y-73660000D01*
X87526500Y-73660000D02*
X89154000Y-75287500D01*
X77802500Y-84400000D02*
X78740000Y-83462500D01*
X77802500Y-85410000D02*
X77802500Y-84400000D01*
X82882500Y-85410000D02*
X82882500Y-84400000D01*
X82882500Y-84400000D02*
X83820000Y-83462500D01*
X66717500Y-66990000D02*
X67667500Y-66040000D01*
X64437500Y-66990000D02*
X66717500Y-66990000D01*
X64437500Y-72070000D02*
X66717500Y-72070000D01*
X66717500Y-72070000D02*
X67667500Y-71120000D01*
X66717500Y-77150000D02*
X67667500Y-76200000D01*
X64437500Y-77150000D02*
X66717500Y-77150000D01*
X66717500Y-82230000D02*
X67667500Y-81280000D01*
X64437500Y-82230000D02*
X66717500Y-82230000D01*
X64437500Y-87310000D02*
X66717500Y-87310000D01*
X66717500Y-87310000D02*
X67667500Y-86360000D01*
X64437500Y-92390000D02*
X66717500Y-92390000D01*
X66717500Y-92390000D02*
X67667500Y-91440000D01*
X82164000Y-99060000D02*
X79162500Y-99060000D01*
G04 #@! TA.AperFunction,Conductor*
G36*
X85880521Y-68930202D02*
G01*
X85927014Y-68983858D01*
X85938400Y-69036200D01*
X85938400Y-70257400D01*
X85918398Y-70325521D01*
X85864742Y-70372014D01*
X85812400Y-70383400D01*
X84362600Y-70383400D01*
X84294479Y-70363398D01*
X84247986Y-70309742D01*
X84236600Y-70257400D01*
X84236600Y-69036200D01*
X84256602Y-68968079D01*
X84310258Y-68921586D01*
X84362600Y-68910200D01*
X85812400Y-68910200D01*
X85880521Y-68930202D01*
G37*
G04 #@! TD.AperFunction*
G04 #@! TA.AperFunction,Conductor*
G36*
X81217121Y-67569502D02*
G01*
X81263614Y-67623158D01*
X81275000Y-67675500D01*
X81275000Y-68399000D01*
X81254998Y-68467121D01*
X81201342Y-68513614D01*
X81149000Y-68525000D01*
X79501000Y-68525000D01*
X79432879Y-68504998D01*
X79386386Y-68451342D01*
X79375000Y-68399000D01*
X79375000Y-67675500D01*
X79395002Y-67607379D01*
X79448658Y-67560886D01*
X79501000Y-67549500D01*
X81149000Y-67549500D01*
X81217121Y-67569502D01*
G37*
G04 #@! TD.AperFunction*
M02*
