M48
; DRILL file {KiCad (6.0.1-0)} date Monday, September 18, 2023 at 04:52:35 PM
; FORMAT={-:-/ absolute / metric / decimal}
; #@! TF.CreationDate,2023-09-18T16:52:35-04:00
; #@! TF.GenerationSoftware,Kicad,Pcbnew,(6.0.1-0)
; #@! TF.FileFunction,Plated,1,2,PTH
FMAT,2
METRIC
; #@! TA.AperFunction,Plated,PTH,ViaDrill
T1C0.300
; #@! TA.AperFunction,Plated,PTH,ComponentDrill
T2C1.000
%
G90
G05
T1
X60.452Y-55.88
X60.452Y-60.96
X60.706Y-66.04
X60.706Y-71.12
X60.706Y-76.2
X60.706Y-81.28
X60.706Y-86.36
X60.706Y-91.44
X64.433Y-81.262
X64.44Y-66.015
X64.44Y-71.095
X64.44Y-76.175
X64.44Y-86.335
X64.44Y-91.415
X67.31Y-57.658
X73.66Y-90.424
X74.422Y-109.22
X76.708Y-87.3
X76.708Y-90.424
X77.96Y-109.22
X78.359Y-72.72
X78.74Y-80.772
X79.502Y-90.424
X79.625Y-68.275
X80.01Y-52.832
X80.3Y-68.275
X81.0Y-68.275
X81.28Y-74.676
X81.788Y-62.484
X82.677Y-91.059
X84.201Y-87.3
X84.516Y-68.885
X84.516Y-69.647
X84.516Y-70.409
X84.963Y-81.661
X85.598Y-62.484
X85.598Y-63.5
X86.106Y-72.644
X86.868Y-91.44
X86.868Y-96.266
X87.376Y-74.676
X89.916Y-65.405
X90.17Y-64.135
X93.726Y-75.946
X93.726Y-78.994
X93.726Y-81.534
X95.758Y-77.47
T2
X63.5Y-54.864
X66.04Y-54.864
X68.58Y-54.864
X69.85Y-105.41
X69.85Y-107.95
X69.85Y-110.49
X69.85Y-113.03
X69.85Y-115.57
X69.85Y-118.11
X71.12Y-54.864
X73.66Y-54.864
X82.164Y-99.06
X82.55Y-105.41
X82.55Y-107.95
X82.55Y-110.49
X82.55Y-113.03
X82.55Y-115.57
X82.55Y-118.11
X84.704Y-99.06
X86.36Y-54.864
X88.9Y-54.864
X91.44Y-54.864
X93.98Y-54.864
X96.52Y-54.864
X99.06Y-66.035
X99.06Y-68.575
X99.06Y-71.115
X99.06Y-73.655
X99.06Y-76.195
X99.06Y-78.735
X99.06Y-81.275
T0
M30
