G04 #@! TF.GenerationSoftware,KiCad,Pcbnew,(6.0.1-0)*
G04 #@! TF.CreationDate,2023-09-18T16:52:30-04:00*
G04 #@! TF.ProjectId,Breadboard-1,42726561-6462-46f6-9172-642d312e6b69,rev?*
G04 #@! TF.SameCoordinates,Original*
G04 #@! TF.FileFunction,Soldermask,Top*
G04 #@! TF.FilePolarity,Negative*
%FSLAX46Y46*%
G04 Gerber Fmt 4.6, Leading zero omitted, Abs format (unit mm)*
G04 Created by KiCad (PCBNEW (6.0.1-0)) date 2023-09-18 16:52:30*
%MOMM*%
%LPD*%
G01*
G04 APERTURE LIST*
G04 Aperture macros list*
%AMRoundRect*
0 Rectangle with rounded corners*
0 $1 Rounding radius*
0 $2 $3 $4 $5 $6 $7 $8 $9 X,Y pos of 4 corners*
0 Add a 4 corners polygon primitive as box body*
4,1,4,$2,$3,$4,$5,$6,$7,$8,$9,$2,$3,0*
0 Add four circle primitives for the rounded corners*
1,1,$1+$1,$2,$3*
1,1,$1+$1,$4,$5*
1,1,$1+$1,$6,$7*
1,1,$1+$1,$8,$9*
0 Add four rect primitives between the rounded corners*
20,1,$1+$1,$2,$3,$4,$5,0*
20,1,$1+$1,$4,$5,$6,$7,0*
20,1,$1+$1,$6,$7,$8,$9,0*
20,1,$1+$1,$8,$9,$2,$3,0*%
G04 Aperture macros list end*
%ADD10R,0.450000X0.600000*%
%ADD11RoundRect,0.250000X0.262500X0.450000X-0.262500X0.450000X-0.262500X-0.450000X0.262500X-0.450000X0*%
%ADD12RoundRect,0.150000X-0.587500X-0.150000X0.587500X-0.150000X0.587500X0.150000X-0.587500X0.150000X0*%
%ADD13R,1.700000X1.700000*%
%ADD14O,1.700000X1.700000*%
%ADD15RoundRect,0.250000X-0.250000X-0.475000X0.250000X-0.475000X0.250000X0.475000X-0.250000X0.475000X0*%
%ADD16RoundRect,0.150000X0.587500X0.150000X-0.587500X0.150000X-0.587500X-0.150000X0.587500X-0.150000X0*%
%ADD17RoundRect,0.250000X-0.450000X0.262500X-0.450000X-0.262500X0.450000X-0.262500X0.450000X0.262500X0*%
%ADD18RoundRect,0.250000X-0.262500X-0.450000X0.262500X-0.450000X0.262500X0.450000X-0.262500X0.450000X0*%
%ADD19C,1.448000*%
%ADD20RoundRect,0.243750X0.243750X0.456250X-0.243750X0.456250X-0.243750X-0.456250X0.243750X-0.456250X0*%
%ADD21RoundRect,0.250000X-0.362500X-1.425000X0.362500X-1.425000X0.362500X1.425000X-0.362500X1.425000X0*%
%ADD22R,0.600000X0.450000*%
%ADD23R,1.500000X1.000000*%
%ADD24RoundRect,0.250000X-0.475000X0.250000X-0.475000X-0.250000X0.475000X-0.250000X0.475000X0.250000X0*%
%ADD25RoundRect,0.125000X0.825000X0.125000X-0.825000X0.125000X-0.825000X-0.125000X0.825000X-0.125000X0*%
%ADD26RoundRect,0.250000X0.475000X-0.250000X0.475000X0.250000X-0.475000X0.250000X-0.475000X-0.250000X0*%
%ADD27RoundRect,0.250000X0.450000X-0.262500X0.450000X0.262500X-0.450000X0.262500X-0.450000X-0.262500X0*%
G04 APERTURE END LIST*
D10*
X77978000Y-110651000D03*
X77978000Y-108551000D03*
D11*
X69492500Y-66040000D03*
X67667500Y-66040000D03*
D12*
X77802500Y-77790000D03*
X77802500Y-79690000D03*
X79677500Y-78740000D03*
D13*
X99060000Y-66035000D03*
D14*
X99060000Y-68575000D03*
X99060000Y-71115000D03*
X99060000Y-73655000D03*
X99060000Y-76195000D03*
X99060000Y-78735000D03*
X99060000Y-81275000D03*
D15*
X85410000Y-69646800D03*
X87310000Y-69646800D03*
D16*
X64437500Y-82230000D03*
X64437500Y-80330000D03*
X62562500Y-81280000D03*
D12*
X82882500Y-77790000D03*
X82882500Y-79690000D03*
X84757500Y-78740000D03*
D17*
X82296000Y-53848000D03*
X82296000Y-55673000D03*
D18*
X52427500Y-71120000D03*
X54252500Y-71120000D03*
D17*
X78740000Y-81637500D03*
X78740000Y-83462500D03*
D18*
X87987500Y-91440000D03*
X89812500Y-91440000D03*
X52427500Y-55880000D03*
X54252500Y-55880000D03*
D13*
X82164000Y-99060000D03*
D14*
X84704000Y-99060000D03*
D19*
X99060000Y-93980000D03*
D11*
X69492500Y-81280000D03*
X67667500Y-81280000D03*
D20*
X59357500Y-66040000D03*
X57482500Y-66040000D03*
D15*
X91760000Y-74930000D03*
X93660000Y-74930000D03*
D21*
X73237500Y-99060000D03*
X79162500Y-99060000D03*
D22*
X94708000Y-86360000D03*
X96808000Y-86360000D03*
D16*
X64437500Y-66990000D03*
X64437500Y-65090000D03*
X62562500Y-66040000D03*
X93647500Y-79690000D03*
X93647500Y-77790000D03*
X91772500Y-78740000D03*
D11*
X89812500Y-96266000D03*
X87987500Y-96266000D03*
X69492500Y-71120000D03*
X67667500Y-71120000D03*
X69492500Y-86360000D03*
X67667500Y-86360000D03*
D10*
X74422000Y-110617000D03*
X74422000Y-108517000D03*
D18*
X52427500Y-91440000D03*
X54252500Y-91440000D03*
D23*
X74450000Y-93280000D03*
X74450000Y-94680000D03*
X77950000Y-94680000D03*
X77950000Y-93280000D03*
D24*
X80010000Y-53810500D03*
X80010000Y-55710500D03*
D18*
X52427500Y-76200000D03*
X54252500Y-76200000D03*
D10*
X74422000Y-114173000D03*
X74422000Y-112073000D03*
D20*
X59357500Y-91440000D03*
X57482500Y-91440000D03*
D12*
X82882500Y-85410000D03*
X82882500Y-87310000D03*
X84757500Y-86360000D03*
D18*
X52427500Y-86360000D03*
X54252500Y-86360000D03*
D25*
X87320000Y-67695000D03*
X87320000Y-67045000D03*
X87320000Y-66395000D03*
X87320000Y-65745000D03*
X87320000Y-65095000D03*
X87320000Y-64445000D03*
X87320000Y-63795000D03*
X87320000Y-63145000D03*
X87320000Y-62495000D03*
X87320000Y-61845000D03*
X80320000Y-61845000D03*
X80320000Y-62495000D03*
X80320000Y-63145000D03*
X80320000Y-63795000D03*
X80320000Y-64445000D03*
X80320000Y-65095000D03*
X80320000Y-65745000D03*
X80320000Y-66395000D03*
X80320000Y-67045000D03*
X80320000Y-67695000D03*
D20*
X59357500Y-81280000D03*
X57482500Y-81280000D03*
D16*
X64437500Y-77150000D03*
X64437500Y-75250000D03*
X62562500Y-76200000D03*
D11*
X69492500Y-76200000D03*
X67667500Y-76200000D03*
D18*
X52427500Y-81280000D03*
X54252500Y-81280000D03*
D19*
X55880000Y-53340000D03*
D16*
X79677500Y-74610000D03*
X79677500Y-72710000D03*
X77802500Y-73660000D03*
D17*
X77724000Y-53848000D03*
X77724000Y-55673000D03*
D20*
X59357500Y-71120000D03*
X57482500Y-71120000D03*
D15*
X91760000Y-82550000D03*
X93660000Y-82550000D03*
D20*
X59357500Y-86360000D03*
X57482500Y-86360000D03*
D18*
X79859500Y-93980000D03*
X81684500Y-93980000D03*
D16*
X64437500Y-92390000D03*
X64437500Y-90490000D03*
X62562500Y-91440000D03*
D26*
X88900000Y-84770000D03*
X88900000Y-82870000D03*
D20*
X59357500Y-55880000D03*
X57482500Y-55880000D03*
D18*
X52427500Y-66040000D03*
X54252500Y-66040000D03*
D17*
X89154000Y-75287500D03*
X89154000Y-77112500D03*
D11*
X89812500Y-88900000D03*
X87987500Y-88900000D03*
D18*
X87987500Y-98552000D03*
X89812500Y-98552000D03*
D26*
X73660000Y-84770000D03*
X73660000Y-82870000D03*
D16*
X64437500Y-87310000D03*
X64437500Y-85410000D03*
X62562500Y-86360000D03*
D10*
X77978000Y-114173000D03*
X77978000Y-112073000D03*
D27*
X83820000Y-83462500D03*
X83820000Y-81637500D03*
D20*
X59357500Y-60960000D03*
X57482500Y-60960000D03*
D12*
X77802500Y-85410000D03*
X77802500Y-87310000D03*
X79677500Y-86360000D03*
D18*
X52427500Y-60960000D03*
X54252500Y-60960000D03*
D11*
X89812500Y-93980000D03*
X87987500Y-93980000D03*
D19*
X99060000Y-60960000D03*
D11*
X69492500Y-91440000D03*
X67667500Y-91440000D03*
D17*
X73660000Y-75287500D03*
X73660000Y-77112500D03*
D16*
X64437500Y-72070000D03*
X64437500Y-70170000D03*
X62562500Y-71120000D03*
D20*
X59357500Y-76200000D03*
X57482500Y-76200000D03*
D19*
X53340000Y-93980000D03*
D16*
X84757500Y-74610000D03*
X84757500Y-72710000D03*
X82882500Y-73660000D03*
D13*
X73660000Y-54864000D03*
D14*
X71120000Y-54864000D03*
X68580000Y-54864000D03*
X66040000Y-54864000D03*
X63500000Y-54864000D03*
D13*
X86360000Y-54864000D03*
D14*
X88900000Y-54864000D03*
X91440000Y-54864000D03*
X93980000Y-54864000D03*
X96520000Y-54864000D03*
D13*
X69850000Y-105410000D03*
D14*
X69850000Y-107950000D03*
X69850000Y-110490000D03*
X69850000Y-113030000D03*
X69850000Y-115570000D03*
X69850000Y-118110000D03*
D13*
X82550000Y-105410000D03*
D14*
X82550000Y-107950000D03*
X82550000Y-110490000D03*
X82550000Y-113030000D03*
X82550000Y-115570000D03*
X82550000Y-118110000D03*
M02*
