G04 #@! TF.GenerationSoftware,KiCad,Pcbnew,(6.0.1-0)*
G04 #@! TF.CreationDate,2023-09-18T16:52:29-04:00*
G04 #@! TF.ProjectId,Breadboard-1,42726561-6462-46f6-9172-642d312e6b69,rev?*
G04 #@! TF.SameCoordinates,Original*
G04 #@! TF.FileFunction,Copper,L2,Bot*
G04 #@! TF.FilePolarity,Positive*
%FSLAX46Y46*%
G04 Gerber Fmt 4.6, Leading zero omitted, Abs format (unit mm)*
G04 Created by KiCad (PCBNEW (6.0.1-0)) date 2023-09-18 16:52:29*
%MOMM*%
%LPD*%
G01*
G04 APERTURE LIST*
G04 #@! TA.AperFunction,ComponentPad*
%ADD10R,1.700000X1.700000*%
G04 #@! TD*
G04 #@! TA.AperFunction,ComponentPad*
%ADD11O,1.700000X1.700000*%
G04 #@! TD*
G04 #@! TA.AperFunction,ViaPad*
%ADD12C,0.600000*%
G04 #@! TD*
G04 #@! TA.AperFunction,Conductor*
%ADD13C,0.381000*%
G04 #@! TD*
G04 APERTURE END LIST*
D10*
X99060000Y-66035000D03*
D11*
X99060000Y-68575000D03*
X99060000Y-71115000D03*
X99060000Y-73655000D03*
X99060000Y-76195000D03*
X99060000Y-78735000D03*
X99060000Y-81275000D03*
D10*
X82164000Y-99060000D03*
D11*
X84704000Y-99060000D03*
D10*
X73660000Y-54864000D03*
D11*
X71120000Y-54864000D03*
X68580000Y-54864000D03*
X66040000Y-54864000D03*
X63500000Y-54864000D03*
D10*
X86360000Y-54864000D03*
D11*
X88900000Y-54864000D03*
X91440000Y-54864000D03*
X93980000Y-54864000D03*
X96520000Y-54864000D03*
D10*
X69850000Y-105410000D03*
D11*
X69850000Y-107950000D03*
X69850000Y-110490000D03*
X69850000Y-113030000D03*
X69850000Y-115570000D03*
X69850000Y-118110000D03*
D10*
X82550000Y-105410000D03*
D11*
X82550000Y-107950000D03*
X82550000Y-110490000D03*
X82550000Y-113030000D03*
X82550000Y-115570000D03*
X82550000Y-118110000D03*
D12*
X82677000Y-91059000D03*
X79502000Y-90424000D03*
X60706000Y-66040000D03*
X60706000Y-71120000D03*
X60706000Y-76200000D03*
X60706000Y-81280000D03*
X74422000Y-109220000D03*
X93726000Y-81534000D03*
X64439800Y-66014600D03*
X84516000Y-69646800D03*
X86106000Y-72644000D03*
X80010000Y-52832000D03*
X73660000Y-90424000D03*
X80300000Y-68275000D03*
X76708000Y-87299800D03*
X64439800Y-71094600D03*
X64432756Y-81261644D03*
X86868000Y-96266000D03*
X77959912Y-109220000D03*
X64439800Y-76174600D03*
X78359000Y-72720200D03*
X84516000Y-70408800D03*
X64439800Y-86334600D03*
X81000000Y-68275000D03*
X93726000Y-75946000D03*
X86868000Y-91440000D03*
X79625000Y-68275000D03*
X60452000Y-55880000D03*
X84201000Y-87299800D03*
X60452000Y-60960000D03*
X93726000Y-78994000D03*
X76708000Y-90424000D03*
X64439800Y-91414600D03*
X84516000Y-68884800D03*
X60706000Y-86360000D03*
X60706000Y-91440000D03*
X67310000Y-57658000D03*
X85598000Y-62484000D03*
X81280000Y-74676000D03*
X78740000Y-80772000D03*
X85598000Y-63500000D03*
X95758000Y-77470000D03*
X81788000Y-62484000D03*
X90170000Y-64135000D03*
X87376000Y-74676000D03*
X89916000Y-65405000D03*
X84963000Y-81661000D03*
D13*
X82677000Y-91059000D02*
X82042000Y-90424000D01*
X82042000Y-90424000D02*
X79502000Y-90424000D01*
X75946000Y-101346000D02*
X75946000Y-81280000D01*
X82550000Y-107950000D02*
X75946000Y-101346000D01*
X75946000Y-81280000D02*
X60706000Y-66040000D01*
X75184000Y-103886000D02*
X75184000Y-85598000D01*
X81788000Y-110490000D02*
X75184000Y-103886000D01*
X75184000Y-85598000D02*
X60706000Y-71120000D01*
X82550000Y-110490000D02*
X81788000Y-110490000D01*
X82550000Y-113030000D02*
X82550000Y-112268000D01*
X82550000Y-112268000D02*
X74422000Y-104140000D01*
X74422000Y-89916000D02*
X60706000Y-76200000D01*
X74422000Y-104140000D02*
X74422000Y-89916000D01*
X69850000Y-113030000D02*
X72390000Y-110490000D01*
X72390000Y-92964000D02*
X60706000Y-81280000D01*
X72390000Y-110490000D02*
X72390000Y-92964000D01*
X71755000Y-108585000D02*
X71755000Y-97409000D01*
X69850000Y-110490000D02*
X71755000Y-108585000D01*
X71755000Y-97409000D02*
X60706000Y-86360000D01*
X71120000Y-101854000D02*
X60706000Y-91440000D01*
X69850000Y-107950000D02*
X71120000Y-106680000D01*
X71120000Y-106680000D02*
X71120000Y-101854000D01*
X66294000Y-57658000D02*
X67310000Y-57658000D01*
X63500000Y-54864000D02*
X66294000Y-57658000D01*
X83058000Y-65024000D02*
X85598000Y-62484000D01*
X83058000Y-72898000D02*
X83058000Y-65024000D01*
X81280000Y-74676000D02*
X83058000Y-72898000D01*
X83732501Y-65365499D02*
X83732501Y-75779499D01*
X83732501Y-75779499D02*
X78740000Y-80772000D01*
X85598000Y-63500000D02*
X83732501Y-65365499D01*
X97033000Y-76195000D02*
X95758000Y-77470000D01*
X99060000Y-76195000D02*
X97033000Y-76195000D01*
X81788000Y-61976000D02*
X88900000Y-54864000D01*
X81788000Y-62484000D02*
X81788000Y-61976000D01*
X87376000Y-74676000D02*
X88900000Y-73152000D01*
X88900000Y-73152000D02*
X88900000Y-65405000D01*
X88900000Y-65405000D02*
X90170000Y-64135000D01*
X89916000Y-76708000D02*
X89916000Y-65405000D01*
X84963000Y-81661000D02*
X89916000Y-76708000D01*
G04 #@! TA.AperFunction,Conductor*
G36*
X96490681Y-51301500D02*
G01*
X96504957Y-51303723D01*
X96504959Y-51303723D01*
X96513829Y-51305104D01*
X96522732Y-51303940D01*
X96533760Y-51302498D01*
X96555590Y-51301554D01*
X96913676Y-51317188D01*
X96924627Y-51318146D01*
X97309859Y-51368864D01*
X97320683Y-51370773D01*
X97700019Y-51454869D01*
X97710636Y-51457714D01*
X98081209Y-51574555D01*
X98091522Y-51578308D01*
X98450524Y-51727012D01*
X98460468Y-51731650D01*
X98805117Y-51911062D01*
X98814637Y-51916558D01*
X99142343Y-52125330D01*
X99151333Y-52131624D01*
X99459612Y-52368176D01*
X99468016Y-52375227D01*
X99754492Y-52637736D01*
X99762264Y-52645508D01*
X100024773Y-52931984D01*
X100031824Y-52940388D01*
X100268376Y-53248667D01*
X100274670Y-53257657D01*
X100470250Y-53564655D01*
X100483442Y-53585363D01*
X100488937Y-53594882D01*
X100650052Y-53904380D01*
X100668346Y-53939523D01*
X100672988Y-53949476D01*
X100811730Y-54284428D01*
X100821689Y-54308470D01*
X100825445Y-54318791D01*
X100924634Y-54633378D01*
X100942286Y-54689363D01*
X100945131Y-54699981D01*
X101029227Y-55079317D01*
X101031136Y-55090141D01*
X101081854Y-55475374D01*
X101082812Y-55486324D01*
X101093541Y-55732045D01*
X101098126Y-55837068D01*
X101096745Y-55861952D01*
X101096277Y-55864954D01*
X101096277Y-55864960D01*
X101094896Y-55873829D01*
X101096060Y-55882731D01*
X101096060Y-55882734D01*
X101098936Y-55904725D01*
X101100000Y-55921062D01*
X101100000Y-96471297D01*
X101098500Y-96490681D01*
X101094896Y-96513829D01*
X101096060Y-96522732D01*
X101097502Y-96533760D01*
X101098446Y-96555590D01*
X101088644Y-96780099D01*
X101082812Y-96913676D01*
X101081854Y-96924627D01*
X101031136Y-97309859D01*
X101029227Y-97320683D01*
X100945131Y-97700019D01*
X100942286Y-97710636D01*
X100827483Y-98074748D01*
X100825448Y-98081201D01*
X100821692Y-98091522D01*
X100729599Y-98313855D01*
X100672992Y-98450515D01*
X100668350Y-98460468D01*
X100488938Y-98805117D01*
X100483443Y-98814635D01*
X100452241Y-98863613D01*
X100274670Y-99142343D01*
X100268376Y-99151333D01*
X100031824Y-99459612D01*
X100024773Y-99468016D01*
X99762264Y-99754492D01*
X99754492Y-99762264D01*
X99584535Y-99918002D01*
X99484901Y-100009301D01*
X99468016Y-100024773D01*
X99459612Y-100031824D01*
X99151333Y-100268376D01*
X99142343Y-100274670D01*
X98814637Y-100483442D01*
X98805118Y-100488937D01*
X98460468Y-100668350D01*
X98450524Y-100672988D01*
X98091522Y-100821692D01*
X98081209Y-100825445D01*
X97710637Y-100942286D01*
X97700019Y-100945131D01*
X97320683Y-101029227D01*
X97309859Y-101031136D01*
X96924626Y-101081854D01*
X96913675Y-101082812D01*
X96845630Y-101085783D01*
X96562930Y-101098126D01*
X96538048Y-101096745D01*
X96535046Y-101096277D01*
X96535040Y-101096277D01*
X96526171Y-101094896D01*
X96517269Y-101096060D01*
X96517266Y-101096060D01*
X96495275Y-101098936D01*
X96478938Y-101100000D01*
X90222534Y-101100000D01*
X90201630Y-101098254D01*
X90187139Y-101095816D01*
X90187138Y-101095816D01*
X90182342Y-101095009D01*
X90170000Y-101094858D01*
X90165175Y-101095549D01*
X90160331Y-101095864D01*
X90160328Y-101095823D01*
X90155473Y-101096265D01*
X89731860Y-101112910D01*
X89729417Y-101113199D01*
X89729406Y-101113200D01*
X89436689Y-101147845D01*
X89296422Y-101164447D01*
X89145296Y-101194508D01*
X88868801Y-101249506D01*
X88868790Y-101249509D01*
X88866370Y-101249990D01*
X88863994Y-101250660D01*
X88863982Y-101250663D01*
X88446744Y-101368337D01*
X88446739Y-101368339D01*
X88444355Y-101369011D01*
X88032979Y-101520775D01*
X88030744Y-101521805D01*
X88030740Y-101521807D01*
X87637027Y-101703311D01*
X87637014Y-101703318D01*
X87634779Y-101704348D01*
X87252209Y-101918598D01*
X87000043Y-102087090D01*
X86954639Y-102117428D01*
X86887628Y-102162203D01*
X86543285Y-102433662D01*
X86541471Y-102435339D01*
X86541465Y-102435344D01*
X86223100Y-102729638D01*
X86221301Y-102731301D01*
X85923662Y-103053285D01*
X85652203Y-103397628D01*
X85408598Y-103762209D01*
X85194348Y-104144779D01*
X85193318Y-104147014D01*
X85193311Y-104147027D01*
X85014484Y-104534933D01*
X85010775Y-104542979D01*
X84859011Y-104954355D01*
X84858339Y-104956739D01*
X84858337Y-104956744D01*
X84814114Y-105113548D01*
X84739990Y-105376370D01*
X84739509Y-105378790D01*
X84739506Y-105378801D01*
X84684508Y-105655296D01*
X84654447Y-105806422D01*
X84654157Y-105808874D01*
X84605950Y-106216176D01*
X84602910Y-106241860D01*
X84601379Y-106280827D01*
X84586852Y-106650548D01*
X84586083Y-106657999D01*
X84586252Y-106658014D01*
X84585818Y-106662852D01*
X84585009Y-106667658D01*
X84584949Y-106672523D01*
X84584949Y-106672528D01*
X84584934Y-106673829D01*
X84584858Y-106680000D01*
X84588727Y-106707016D01*
X84590000Y-106724878D01*
X84590000Y-118061297D01*
X84588500Y-118080681D01*
X84584896Y-118103829D01*
X84586060Y-118112732D01*
X84586060Y-118112735D01*
X84586963Y-118119643D01*
X84587757Y-118144219D01*
X84586438Y-118164344D01*
X84573087Y-118368031D01*
X84570936Y-118384371D01*
X84522100Y-118629891D01*
X84517834Y-118645812D01*
X84437368Y-118882855D01*
X84431061Y-118898081D01*
X84320345Y-119122592D01*
X84312104Y-119136866D01*
X84173028Y-119345008D01*
X84162995Y-119358083D01*
X83997937Y-119546296D01*
X83986296Y-119557937D01*
X83798083Y-119722995D01*
X83785008Y-119733028D01*
X83576866Y-119872104D01*
X83562592Y-119880345D01*
X83338081Y-119991061D01*
X83322855Y-119997368D01*
X83085812Y-120077834D01*
X83069891Y-120082100D01*
X82824371Y-120130936D01*
X82808031Y-120133087D01*
X82591292Y-120147293D01*
X82569764Y-120146335D01*
X82565043Y-120146277D01*
X82556171Y-120144896D01*
X82547269Y-120146060D01*
X82547266Y-120146060D01*
X82525275Y-120148936D01*
X82508938Y-120150000D01*
X69898703Y-120150000D01*
X69879319Y-120148500D01*
X69865043Y-120146277D01*
X69865041Y-120146277D01*
X69856171Y-120144896D01*
X69847268Y-120146060D01*
X69847265Y-120146060D01*
X69840357Y-120146963D01*
X69815781Y-120147757D01*
X69700866Y-120140225D01*
X69591969Y-120133087D01*
X69575629Y-120130936D01*
X69330109Y-120082100D01*
X69314188Y-120077834D01*
X69077145Y-119997368D01*
X69061919Y-119991061D01*
X68837408Y-119880345D01*
X68823134Y-119872104D01*
X68614992Y-119733028D01*
X68601917Y-119722995D01*
X68413704Y-119557937D01*
X68402063Y-119546296D01*
X68237005Y-119358083D01*
X68226972Y-119345008D01*
X68087896Y-119136866D01*
X68079655Y-119122592D01*
X67968939Y-118898081D01*
X67962632Y-118882855D01*
X67882166Y-118645812D01*
X67877900Y-118629891D01*
X67829064Y-118384371D01*
X67826913Y-118368031D01*
X67812707Y-118151292D01*
X67813665Y-118129764D01*
X67813723Y-118125043D01*
X67815104Y-118116171D01*
X67813491Y-118103829D01*
X67811064Y-118085275D01*
X67810783Y-118080964D01*
X68741148Y-118080964D01*
X68754424Y-118283522D01*
X68755845Y-118289118D01*
X68755846Y-118289123D01*
X68791169Y-118428203D01*
X68804392Y-118480269D01*
X68806809Y-118485512D01*
X68844010Y-118566208D01*
X68889377Y-118664616D01*
X69006533Y-118830389D01*
X69151938Y-118972035D01*
X69320720Y-119084812D01*
X69326023Y-119087090D01*
X69326026Y-119087092D01*
X69414707Y-119125192D01*
X69507228Y-119164942D01*
X69580244Y-119181464D01*
X69699579Y-119208467D01*
X69699584Y-119208468D01*
X69705216Y-119209742D01*
X69710987Y-119209969D01*
X69710989Y-119209969D01*
X69770756Y-119212317D01*
X69908053Y-119217712D01*
X70008499Y-119203148D01*
X70103231Y-119189413D01*
X70103236Y-119189412D01*
X70108945Y-119188584D01*
X70114409Y-119186729D01*
X70114414Y-119186728D01*
X70295693Y-119125192D01*
X70295698Y-119125190D01*
X70301165Y-119123334D01*
X70478276Y-119024147D01*
X70540934Y-118972035D01*
X70629913Y-118898031D01*
X70634345Y-118894345D01*
X70691463Y-118825669D01*
X70760453Y-118742718D01*
X70760455Y-118742715D01*
X70764147Y-118738276D01*
X70863334Y-118561165D01*
X70865190Y-118555698D01*
X70865192Y-118555693D01*
X70926728Y-118374414D01*
X70926729Y-118374409D01*
X70928584Y-118368945D01*
X70929412Y-118363236D01*
X70929413Y-118363231D01*
X70957179Y-118171727D01*
X70957712Y-118168053D01*
X70959232Y-118110000D01*
X70956564Y-118080964D01*
X81441148Y-118080964D01*
X81454424Y-118283522D01*
X81455845Y-118289118D01*
X81455846Y-118289123D01*
X81491169Y-118428203D01*
X81504392Y-118480269D01*
X81506809Y-118485512D01*
X81544010Y-118566208D01*
X81589377Y-118664616D01*
X81706533Y-118830389D01*
X81851938Y-118972035D01*
X82020720Y-119084812D01*
X82026023Y-119087090D01*
X82026026Y-119087092D01*
X82114707Y-119125192D01*
X82207228Y-119164942D01*
X82280244Y-119181464D01*
X82399579Y-119208467D01*
X82399584Y-119208468D01*
X82405216Y-119209742D01*
X82410987Y-119209969D01*
X82410989Y-119209969D01*
X82470756Y-119212317D01*
X82608053Y-119217712D01*
X82708499Y-119203148D01*
X82803231Y-119189413D01*
X82803236Y-119189412D01*
X82808945Y-119188584D01*
X82814409Y-119186729D01*
X82814414Y-119186728D01*
X82995693Y-119125192D01*
X82995698Y-119125190D01*
X83001165Y-119123334D01*
X83178276Y-119024147D01*
X83240934Y-118972035D01*
X83329913Y-118898031D01*
X83334345Y-118894345D01*
X83391463Y-118825669D01*
X83460453Y-118742718D01*
X83460455Y-118742715D01*
X83464147Y-118738276D01*
X83563334Y-118561165D01*
X83565190Y-118555698D01*
X83565192Y-118555693D01*
X83626728Y-118374414D01*
X83626729Y-118374409D01*
X83628584Y-118368945D01*
X83629412Y-118363236D01*
X83629413Y-118363231D01*
X83657179Y-118171727D01*
X83657712Y-118168053D01*
X83659232Y-118110000D01*
X83640658Y-117907859D01*
X83639090Y-117902299D01*
X83587125Y-117718046D01*
X83587124Y-117718044D01*
X83585557Y-117712487D01*
X83574978Y-117691033D01*
X83498331Y-117535609D01*
X83495776Y-117530428D01*
X83374320Y-117367779D01*
X83225258Y-117229987D01*
X83220375Y-117226906D01*
X83220371Y-117226903D01*
X83058464Y-117124748D01*
X83053581Y-117121667D01*
X82865039Y-117046446D01*
X82859379Y-117045320D01*
X82859375Y-117045319D01*
X82671613Y-117007971D01*
X82671610Y-117007971D01*
X82665946Y-117006844D01*
X82660171Y-117006768D01*
X82660167Y-117006768D01*
X82558793Y-117005441D01*
X82462971Y-117004187D01*
X82457274Y-117005166D01*
X82457273Y-117005166D01*
X82268607Y-117037585D01*
X82262910Y-117038564D01*
X82072463Y-117108824D01*
X81898010Y-117212612D01*
X81893670Y-117216418D01*
X81893666Y-117216421D01*
X81873723Y-117233911D01*
X81745392Y-117346455D01*
X81619720Y-117505869D01*
X81617031Y-117510980D01*
X81617029Y-117510983D01*
X81604073Y-117535609D01*
X81525203Y-117685515D01*
X81465007Y-117879378D01*
X81441148Y-118080964D01*
X70956564Y-118080964D01*
X70940658Y-117907859D01*
X70939090Y-117902299D01*
X70887125Y-117718046D01*
X70887124Y-117718044D01*
X70885557Y-117712487D01*
X70874978Y-117691033D01*
X70798331Y-117535609D01*
X70795776Y-117530428D01*
X70674320Y-117367779D01*
X70525258Y-117229987D01*
X70520375Y-117226906D01*
X70520371Y-117226903D01*
X70358464Y-117124748D01*
X70353581Y-117121667D01*
X70165039Y-117046446D01*
X70159379Y-117045320D01*
X70159375Y-117045319D01*
X69971613Y-117007971D01*
X69971610Y-117007971D01*
X69965946Y-117006844D01*
X69960171Y-117006768D01*
X69960167Y-117006768D01*
X69858793Y-117005441D01*
X69762971Y-117004187D01*
X69757274Y-117005166D01*
X69757273Y-117005166D01*
X69568607Y-117037585D01*
X69562910Y-117038564D01*
X69372463Y-117108824D01*
X69198010Y-117212612D01*
X69193670Y-117216418D01*
X69193666Y-117216421D01*
X69173723Y-117233911D01*
X69045392Y-117346455D01*
X68919720Y-117505869D01*
X68917031Y-117510980D01*
X68917029Y-117510983D01*
X68904073Y-117535609D01*
X68825203Y-117685515D01*
X68765007Y-117879378D01*
X68741148Y-118080964D01*
X67810783Y-118080964D01*
X67810000Y-118068938D01*
X67810000Y-115540964D01*
X68741148Y-115540964D01*
X68754424Y-115743522D01*
X68755845Y-115749118D01*
X68755846Y-115749123D01*
X68776119Y-115828945D01*
X68804392Y-115940269D01*
X68806809Y-115945512D01*
X68844010Y-116026208D01*
X68889377Y-116124616D01*
X69006533Y-116290389D01*
X69151938Y-116432035D01*
X69320720Y-116544812D01*
X69326023Y-116547090D01*
X69326026Y-116547092D01*
X69414707Y-116585192D01*
X69507228Y-116624942D01*
X69580244Y-116641464D01*
X69699579Y-116668467D01*
X69699584Y-116668468D01*
X69705216Y-116669742D01*
X69710987Y-116669969D01*
X69710989Y-116669969D01*
X69770756Y-116672317D01*
X69908053Y-116677712D01*
X70008499Y-116663148D01*
X70103231Y-116649413D01*
X70103236Y-116649412D01*
X70108945Y-116648584D01*
X70114409Y-116646729D01*
X70114414Y-116646728D01*
X70295693Y-116585192D01*
X70295698Y-116585190D01*
X70301165Y-116583334D01*
X70478276Y-116484147D01*
X70540934Y-116432035D01*
X70629913Y-116358031D01*
X70634345Y-116354345D01*
X70764147Y-116198276D01*
X70863334Y-116021165D01*
X70865190Y-116015698D01*
X70865192Y-116015693D01*
X70926728Y-115834414D01*
X70926729Y-115834409D01*
X70928584Y-115828945D01*
X70929412Y-115823236D01*
X70929413Y-115823231D01*
X70957179Y-115631727D01*
X70957712Y-115628053D01*
X70959232Y-115570000D01*
X70956564Y-115540964D01*
X81441148Y-115540964D01*
X81454424Y-115743522D01*
X81455845Y-115749118D01*
X81455846Y-115749123D01*
X81476119Y-115828945D01*
X81504392Y-115940269D01*
X81506809Y-115945512D01*
X81544010Y-116026208D01*
X81589377Y-116124616D01*
X81706533Y-116290389D01*
X81851938Y-116432035D01*
X82020720Y-116544812D01*
X82026023Y-116547090D01*
X82026026Y-116547092D01*
X82114707Y-116585192D01*
X82207228Y-116624942D01*
X82280244Y-116641464D01*
X82399579Y-116668467D01*
X82399584Y-116668468D01*
X82405216Y-116669742D01*
X82410987Y-116669969D01*
X82410989Y-116669969D01*
X82470756Y-116672317D01*
X82608053Y-116677712D01*
X82708499Y-116663148D01*
X82803231Y-116649413D01*
X82803236Y-116649412D01*
X82808945Y-116648584D01*
X82814409Y-116646729D01*
X82814414Y-116646728D01*
X82995693Y-116585192D01*
X82995698Y-116585190D01*
X83001165Y-116583334D01*
X83178276Y-116484147D01*
X83240934Y-116432035D01*
X83329913Y-116358031D01*
X83334345Y-116354345D01*
X83464147Y-116198276D01*
X83563334Y-116021165D01*
X83565190Y-116015698D01*
X83565192Y-116015693D01*
X83626728Y-115834414D01*
X83626729Y-115834409D01*
X83628584Y-115828945D01*
X83629412Y-115823236D01*
X83629413Y-115823231D01*
X83657179Y-115631727D01*
X83657712Y-115628053D01*
X83659232Y-115570000D01*
X83640658Y-115367859D01*
X83639090Y-115362299D01*
X83587125Y-115178046D01*
X83587124Y-115178044D01*
X83585557Y-115172487D01*
X83574978Y-115151033D01*
X83498331Y-114995609D01*
X83495776Y-114990428D01*
X83374320Y-114827779D01*
X83225258Y-114689987D01*
X83220375Y-114686906D01*
X83220371Y-114686903D01*
X83058464Y-114584748D01*
X83053581Y-114581667D01*
X82865039Y-114506446D01*
X82859379Y-114505320D01*
X82859375Y-114505319D01*
X82671613Y-114467971D01*
X82671610Y-114467971D01*
X82665946Y-114466844D01*
X82660171Y-114466768D01*
X82660167Y-114466768D01*
X82558793Y-114465441D01*
X82462971Y-114464187D01*
X82457274Y-114465166D01*
X82457273Y-114465166D01*
X82268607Y-114497585D01*
X82262910Y-114498564D01*
X82072463Y-114568824D01*
X81898010Y-114672612D01*
X81893670Y-114676418D01*
X81893666Y-114676421D01*
X81873723Y-114693911D01*
X81745392Y-114806455D01*
X81619720Y-114965869D01*
X81617031Y-114970980D01*
X81617029Y-114970983D01*
X81604073Y-114995609D01*
X81525203Y-115145515D01*
X81465007Y-115339378D01*
X81441148Y-115540964D01*
X70956564Y-115540964D01*
X70940658Y-115367859D01*
X70939090Y-115362299D01*
X70887125Y-115178046D01*
X70887124Y-115178044D01*
X70885557Y-115172487D01*
X70874978Y-115151033D01*
X70798331Y-114995609D01*
X70795776Y-114990428D01*
X70674320Y-114827779D01*
X70525258Y-114689987D01*
X70520375Y-114686906D01*
X70520371Y-114686903D01*
X70358464Y-114584748D01*
X70353581Y-114581667D01*
X70165039Y-114506446D01*
X70159379Y-114505320D01*
X70159375Y-114505319D01*
X69971613Y-114467971D01*
X69971610Y-114467971D01*
X69965946Y-114466844D01*
X69960171Y-114466768D01*
X69960167Y-114466768D01*
X69858793Y-114465441D01*
X69762971Y-114464187D01*
X69757274Y-114465166D01*
X69757273Y-114465166D01*
X69568607Y-114497585D01*
X69562910Y-114498564D01*
X69372463Y-114568824D01*
X69198010Y-114672612D01*
X69193670Y-114676418D01*
X69193666Y-114676421D01*
X69173723Y-114693911D01*
X69045392Y-114806455D01*
X68919720Y-114965869D01*
X68917031Y-114970980D01*
X68917029Y-114970983D01*
X68904073Y-114995609D01*
X68825203Y-115145515D01*
X68765007Y-115339378D01*
X68741148Y-115540964D01*
X67810000Y-115540964D01*
X67810000Y-106732534D01*
X67811746Y-106711630D01*
X67814184Y-106697139D01*
X67814184Y-106697138D01*
X67814991Y-106692342D01*
X67815142Y-106680000D01*
X67814451Y-106675175D01*
X67814136Y-106670331D01*
X67814177Y-106670328D01*
X67813734Y-106665466D01*
X67813464Y-106658577D01*
X67797090Y-106241860D01*
X67794051Y-106216176D01*
X67745843Y-105808874D01*
X67745553Y-105806422D01*
X67715492Y-105655296D01*
X67660494Y-105378801D01*
X67660491Y-105378790D01*
X67660010Y-105376370D01*
X67585887Y-105113548D01*
X67541663Y-104956744D01*
X67541661Y-104956739D01*
X67540989Y-104954355D01*
X67389225Y-104542979D01*
X67385516Y-104534933D01*
X67206689Y-104147027D01*
X67206682Y-104147014D01*
X67205652Y-104144779D01*
X66991402Y-103762209D01*
X66747797Y-103397628D01*
X66476338Y-103053285D01*
X66178699Y-102731301D01*
X66176900Y-102729638D01*
X65858535Y-102435344D01*
X65858529Y-102435339D01*
X65856715Y-102433662D01*
X65512372Y-102162203D01*
X65445362Y-102117428D01*
X65399957Y-102087090D01*
X65147791Y-101918598D01*
X64765221Y-101704348D01*
X64762986Y-101703318D01*
X64762973Y-101703311D01*
X64369260Y-101521807D01*
X64369256Y-101521805D01*
X64367021Y-101520775D01*
X63955645Y-101369011D01*
X63953261Y-101368339D01*
X63953256Y-101368337D01*
X63536018Y-101250663D01*
X63536006Y-101250660D01*
X63533630Y-101249990D01*
X63531210Y-101249509D01*
X63531199Y-101249506D01*
X63254704Y-101194508D01*
X63103578Y-101164447D01*
X62963311Y-101147845D01*
X62670594Y-101113200D01*
X62670583Y-101113199D01*
X62668140Y-101112910D01*
X62578776Y-101109399D01*
X62259452Y-101096852D01*
X62252001Y-101096083D01*
X62251986Y-101096252D01*
X62247148Y-101095818D01*
X62242342Y-101095009D01*
X62237477Y-101094949D01*
X62237472Y-101094949D01*
X62234859Y-101094917D01*
X62234853Y-101094917D01*
X62230000Y-101094858D01*
X62207181Y-101098126D01*
X62202984Y-101098727D01*
X62185122Y-101100000D01*
X55928703Y-101100000D01*
X55909319Y-101098500D01*
X55895043Y-101096277D01*
X55895041Y-101096277D01*
X55886171Y-101094896D01*
X55877268Y-101096060D01*
X55866240Y-101097502D01*
X55844410Y-101098446D01*
X55486324Y-101082812D01*
X55475373Y-101081854D01*
X55090141Y-101031136D01*
X55079317Y-101029227D01*
X54699981Y-100945131D01*
X54689363Y-100942286D01*
X54318791Y-100825445D01*
X54308478Y-100821692D01*
X53949476Y-100672988D01*
X53939532Y-100668350D01*
X53594882Y-100488937D01*
X53585363Y-100483442D01*
X53257657Y-100274670D01*
X53248667Y-100268376D01*
X52940388Y-100031824D01*
X52931984Y-100024773D01*
X52915100Y-100009301D01*
X52815465Y-99918002D01*
X52645508Y-99762264D01*
X52637736Y-99754492D01*
X52375227Y-99468016D01*
X52368176Y-99459612D01*
X52131624Y-99151333D01*
X52125330Y-99142343D01*
X51947759Y-98863613D01*
X51916557Y-98814635D01*
X51911062Y-98805117D01*
X51731650Y-98460468D01*
X51727008Y-98450515D01*
X51670402Y-98313855D01*
X51578308Y-98091522D01*
X51574552Y-98081201D01*
X51572518Y-98074748D01*
X51457714Y-97710636D01*
X51454869Y-97700019D01*
X51370773Y-97320683D01*
X51368864Y-97309859D01*
X51318146Y-96924626D01*
X51317188Y-96913675D01*
X51301874Y-96562932D01*
X51303255Y-96538048D01*
X51303723Y-96535046D01*
X51303723Y-96535040D01*
X51305104Y-96526171D01*
X51303491Y-96513829D01*
X51301064Y-96495275D01*
X51300000Y-96478938D01*
X51300000Y-93933367D01*
X52505906Y-93933367D01*
X52515349Y-94113564D01*
X52517162Y-94120144D01*
X52517162Y-94120147D01*
X52559363Y-94273351D01*
X52563268Y-94287530D01*
X52647424Y-94447148D01*
X52651826Y-94452357D01*
X52651828Y-94452360D01*
X52759487Y-94579757D01*
X52759491Y-94579761D01*
X52763894Y-94584971D01*
X52769318Y-94589118D01*
X52769319Y-94589119D01*
X52901821Y-94690425D01*
X52901825Y-94690428D01*
X52907242Y-94694569D01*
X52913422Y-94697451D01*
X52913424Y-94697452D01*
X52981066Y-94728994D01*
X53070780Y-94770828D01*
X53148984Y-94788309D01*
X53241835Y-94809064D01*
X53241841Y-94809065D01*
X53246879Y-94810191D01*
X53252406Y-94810500D01*
X53385077Y-94810500D01*
X53519389Y-94795909D01*
X53690409Y-94738355D01*
X53845080Y-94645419D01*
X53850042Y-94640727D01*
X53971229Y-94526126D01*
X53971231Y-94526124D01*
X53976187Y-94521437D01*
X54077612Y-94372195D01*
X54109059Y-94293572D01*
X54142089Y-94210992D01*
X54142090Y-94210987D01*
X54144623Y-94204655D01*
X54174094Y-94026633D01*
X54164651Y-93846436D01*
X54137815Y-93749008D01*
X54118545Y-93679052D01*
X54116732Y-93672470D01*
X54032576Y-93512852D01*
X54028174Y-93507643D01*
X54028172Y-93507640D01*
X53920513Y-93380243D01*
X53920509Y-93380239D01*
X53916106Y-93375029D01*
X53910681Y-93370881D01*
X53778179Y-93269575D01*
X53778175Y-93269572D01*
X53772758Y-93265431D01*
X53766578Y-93262549D01*
X53766576Y-93262548D01*
X53686399Y-93225161D01*
X53609220Y-93189172D01*
X53493718Y-93163354D01*
X53438165Y-93150936D01*
X53438159Y-93150935D01*
X53433121Y-93149809D01*
X53427594Y-93149500D01*
X53294923Y-93149500D01*
X53160611Y-93164091D01*
X52989591Y-93221645D01*
X52834920Y-93314581D01*
X52829960Y-93319272D01*
X52829958Y-93319273D01*
X52765485Y-93380243D01*
X52703813Y-93438563D01*
X52602388Y-93587805D01*
X52599855Y-93594139D01*
X52599853Y-93594142D01*
X52537911Y-93749008D01*
X52537910Y-93749013D01*
X52535377Y-93755345D01*
X52505906Y-93933367D01*
X51300000Y-93933367D01*
X51300000Y-91440000D01*
X60146715Y-91440000D01*
X60165772Y-91584754D01*
X60221645Y-91719642D01*
X60310526Y-91835474D01*
X60317076Y-91840500D01*
X60317079Y-91840503D01*
X60419804Y-91919327D01*
X60426357Y-91924355D01*
X60561246Y-91980228D01*
X60569432Y-91981306D01*
X60569433Y-91981306D01*
X60582939Y-91983084D01*
X60647866Y-92011808D01*
X60655586Y-92018911D01*
X70638095Y-102001420D01*
X70672121Y-102063732D01*
X70675000Y-102090515D01*
X70675000Y-104179500D01*
X70654998Y-104247621D01*
X70601342Y-104294114D01*
X70549000Y-104305500D01*
X69054530Y-104305501D01*
X68974934Y-104305501D01*
X68939182Y-104312612D01*
X68912874Y-104317844D01*
X68912872Y-104317845D01*
X68900699Y-104320266D01*
X68890379Y-104327161D01*
X68890378Y-104327162D01*
X68870080Y-104340725D01*
X68816516Y-104376516D01*
X68760266Y-104460699D01*
X68745500Y-104534933D01*
X68745501Y-106285066D01*
X68760266Y-106359301D01*
X68816516Y-106443484D01*
X68900699Y-106499734D01*
X68974933Y-106514500D01*
X69008447Y-106514500D01*
X70351987Y-106514499D01*
X70420107Y-106534501D01*
X70466600Y-106588157D01*
X70476704Y-106658431D01*
X70447211Y-106723011D01*
X70441081Y-106729594D01*
X70308930Y-106861745D01*
X70246618Y-106895771D01*
X70176034Y-106889920D01*
X70175943Y-106890227D01*
X70174466Y-106889790D01*
X70173145Y-106889680D01*
X70165039Y-106886446D01*
X70159379Y-106885320D01*
X70159375Y-106885319D01*
X69971613Y-106847971D01*
X69971610Y-106847971D01*
X69965946Y-106846844D01*
X69960171Y-106846768D01*
X69960167Y-106846768D01*
X69858793Y-106845441D01*
X69762971Y-106844187D01*
X69757274Y-106845166D01*
X69757273Y-106845166D01*
X69660790Y-106861745D01*
X69562910Y-106878564D01*
X69372463Y-106948824D01*
X69198010Y-107052612D01*
X69193670Y-107056418D01*
X69193666Y-107056421D01*
X69049733Y-107182648D01*
X69045392Y-107186455D01*
X68919720Y-107345869D01*
X68917031Y-107350980D01*
X68917029Y-107350983D01*
X68878868Y-107423515D01*
X68825203Y-107525515D01*
X68765007Y-107719378D01*
X68741148Y-107920964D01*
X68754424Y-108123522D01*
X68755845Y-108129118D01*
X68755846Y-108129123D01*
X68776119Y-108208945D01*
X68804392Y-108320269D01*
X68806809Y-108325512D01*
X68844010Y-108406208D01*
X68889377Y-108504616D01*
X69006533Y-108670389D01*
X69151938Y-108812035D01*
X69320720Y-108924812D01*
X69326023Y-108927090D01*
X69326026Y-108927092D01*
X69467240Y-108987762D01*
X69507228Y-109004942D01*
X69580244Y-109021464D01*
X69699579Y-109048467D01*
X69699584Y-109048468D01*
X69705216Y-109049742D01*
X69710987Y-109049969D01*
X69710989Y-109049969D01*
X69770756Y-109052317D01*
X69908053Y-109057712D01*
X70008499Y-109043148D01*
X70103231Y-109029413D01*
X70103236Y-109029412D01*
X70108945Y-109028584D01*
X70114409Y-109026729D01*
X70114414Y-109026728D01*
X70295693Y-108965192D01*
X70295698Y-108965190D01*
X70301165Y-108963334D01*
X70478276Y-108864147D01*
X70540934Y-108812035D01*
X70553248Y-108801793D01*
X70618412Y-108773612D01*
X70688468Y-108785135D01*
X70688932Y-108785554D01*
X70672988Y-108742807D01*
X70688079Y-108673433D01*
X70701793Y-108653248D01*
X70760453Y-108582718D01*
X70760455Y-108582715D01*
X70764147Y-108578276D01*
X70863334Y-108401165D01*
X70865190Y-108395698D01*
X70865192Y-108395693D01*
X70926728Y-108214414D01*
X70926729Y-108214409D01*
X70928584Y-108208945D01*
X70929412Y-108203236D01*
X70929413Y-108203231D01*
X70957179Y-108011727D01*
X70957712Y-108008053D01*
X70959232Y-107950000D01*
X70940658Y-107747859D01*
X70934244Y-107725115D01*
X70903685Y-107616763D01*
X70904445Y-107545770D01*
X70935859Y-107493466D01*
X71094905Y-107334420D01*
X71157217Y-107300394D01*
X71228032Y-107305459D01*
X71284868Y-107348006D01*
X71309679Y-107414526D01*
X71310000Y-107423515D01*
X71310000Y-108348485D01*
X71289998Y-108416606D01*
X71273095Y-108437580D01*
X70887762Y-108822913D01*
X70825450Y-108856939D01*
X70754635Y-108851874D01*
X70744274Y-108844118D01*
X70759792Y-108901215D01*
X70738417Y-108968918D01*
X70722913Y-108987762D01*
X70308930Y-109401745D01*
X70246618Y-109435771D01*
X70176034Y-109429920D01*
X70175943Y-109430227D01*
X70174466Y-109429790D01*
X70173145Y-109429680D01*
X70165039Y-109426446D01*
X70159379Y-109425320D01*
X70159375Y-109425319D01*
X69971613Y-109387971D01*
X69971610Y-109387971D01*
X69965946Y-109386844D01*
X69960171Y-109386768D01*
X69960167Y-109386768D01*
X69858793Y-109385441D01*
X69762971Y-109384187D01*
X69757274Y-109385166D01*
X69757273Y-109385166D01*
X69660790Y-109401745D01*
X69562910Y-109418564D01*
X69372463Y-109488824D01*
X69198010Y-109592612D01*
X69193670Y-109596418D01*
X69193666Y-109596421D01*
X69062286Y-109711639D01*
X69045392Y-109726455D01*
X68919720Y-109885869D01*
X68917031Y-109890980D01*
X68917029Y-109890983D01*
X68904073Y-109915609D01*
X68825203Y-110065515D01*
X68765007Y-110259378D01*
X68741148Y-110460964D01*
X68754424Y-110663522D01*
X68755845Y-110669118D01*
X68755846Y-110669123D01*
X68793853Y-110818772D01*
X68804392Y-110860269D01*
X68806809Y-110865512D01*
X68844010Y-110946208D01*
X68889377Y-111044616D01*
X69006533Y-111210389D01*
X69151938Y-111352035D01*
X69320720Y-111464812D01*
X69326023Y-111467090D01*
X69326026Y-111467092D01*
X69467240Y-111527762D01*
X69507228Y-111544942D01*
X69580244Y-111561464D01*
X69699579Y-111588467D01*
X69699584Y-111588468D01*
X69705216Y-111589742D01*
X69710987Y-111589969D01*
X69710989Y-111589969D01*
X69770756Y-111592317D01*
X69908053Y-111597712D01*
X70008499Y-111583148D01*
X70103231Y-111569413D01*
X70103236Y-111569412D01*
X70108945Y-111568584D01*
X70114409Y-111566729D01*
X70114414Y-111566728D01*
X70295693Y-111505192D01*
X70295698Y-111505190D01*
X70301165Y-111503334D01*
X70478276Y-111404147D01*
X70540934Y-111352035D01*
X70553248Y-111341793D01*
X70618412Y-111313612D01*
X70688468Y-111325135D01*
X70688932Y-111325554D01*
X70672988Y-111282807D01*
X70688079Y-111213433D01*
X70701793Y-111193248D01*
X70760453Y-111122718D01*
X70760455Y-111122715D01*
X70764147Y-111118276D01*
X70863334Y-110941165D01*
X70865190Y-110935698D01*
X70865192Y-110935693D01*
X70926728Y-110754414D01*
X70926729Y-110754409D01*
X70928584Y-110748945D01*
X70929412Y-110743236D01*
X70929413Y-110743231D01*
X70953902Y-110574327D01*
X70957712Y-110548053D01*
X70959232Y-110490000D01*
X70940658Y-110287859D01*
X70934244Y-110265115D01*
X70903685Y-110156763D01*
X70904445Y-110085770D01*
X70935859Y-110033466D01*
X71729905Y-109239420D01*
X71792217Y-109205394D01*
X71863032Y-109210459D01*
X71919868Y-109253006D01*
X71944679Y-109319526D01*
X71945000Y-109328515D01*
X71945000Y-110253485D01*
X71924998Y-110321606D01*
X71908095Y-110342580D01*
X70887762Y-111362913D01*
X70825450Y-111396939D01*
X70754635Y-111391874D01*
X70744274Y-111384118D01*
X70759792Y-111441215D01*
X70738417Y-111508918D01*
X70722913Y-111527762D01*
X70308930Y-111941745D01*
X70246618Y-111975771D01*
X70176034Y-111969920D01*
X70175943Y-111970227D01*
X70174466Y-111969790D01*
X70173145Y-111969680D01*
X70165039Y-111966446D01*
X70159379Y-111965320D01*
X70159375Y-111965319D01*
X69971613Y-111927971D01*
X69971610Y-111927971D01*
X69965946Y-111926844D01*
X69960171Y-111926768D01*
X69960167Y-111926768D01*
X69858793Y-111925441D01*
X69762971Y-111924187D01*
X69757274Y-111925166D01*
X69757273Y-111925166D01*
X69568607Y-111957585D01*
X69562910Y-111958564D01*
X69372463Y-112028824D01*
X69198010Y-112132612D01*
X69193670Y-112136418D01*
X69193666Y-112136421D01*
X69174529Y-112153204D01*
X69045392Y-112266455D01*
X68919720Y-112425869D01*
X68917031Y-112430980D01*
X68917029Y-112430983D01*
X68904073Y-112455609D01*
X68825203Y-112605515D01*
X68765007Y-112799378D01*
X68741148Y-113000964D01*
X68754424Y-113203522D01*
X68755845Y-113209118D01*
X68755846Y-113209123D01*
X68776119Y-113288945D01*
X68804392Y-113400269D01*
X68806809Y-113405512D01*
X68844010Y-113486208D01*
X68889377Y-113584616D01*
X69006533Y-113750389D01*
X69151938Y-113892035D01*
X69320720Y-114004812D01*
X69326023Y-114007090D01*
X69326026Y-114007092D01*
X69414707Y-114045192D01*
X69507228Y-114084942D01*
X69580244Y-114101464D01*
X69699579Y-114128467D01*
X69699584Y-114128468D01*
X69705216Y-114129742D01*
X69710987Y-114129969D01*
X69710989Y-114129969D01*
X69770756Y-114132317D01*
X69908053Y-114137712D01*
X70008499Y-114123148D01*
X70103231Y-114109413D01*
X70103236Y-114109412D01*
X70108945Y-114108584D01*
X70114409Y-114106729D01*
X70114414Y-114106728D01*
X70295693Y-114045192D01*
X70295698Y-114045190D01*
X70301165Y-114043334D01*
X70478276Y-113944147D01*
X70540934Y-113892035D01*
X70629913Y-113818031D01*
X70634345Y-113814345D01*
X70764147Y-113658276D01*
X70863334Y-113481165D01*
X70865190Y-113475698D01*
X70865192Y-113475693D01*
X70926728Y-113294414D01*
X70926729Y-113294409D01*
X70928584Y-113288945D01*
X70929412Y-113283236D01*
X70929413Y-113283231D01*
X70957179Y-113091727D01*
X70957712Y-113088053D01*
X70959232Y-113030000D01*
X70940658Y-112827859D01*
X70934244Y-112805115D01*
X70903685Y-112696763D01*
X70904445Y-112625770D01*
X70935859Y-112573466D01*
X72680698Y-110828627D01*
X72691787Y-110818772D01*
X72710658Y-110803895D01*
X72718055Y-110798064D01*
X72751031Y-110750351D01*
X72753237Y-110747263D01*
X72787718Y-110700581D01*
X72790082Y-110693850D01*
X72794136Y-110687984D01*
X72811599Y-110632766D01*
X72812847Y-110629025D01*
X72828935Y-110583214D01*
X72828936Y-110583209D01*
X72832055Y-110574327D01*
X72832335Y-110567198D01*
X72834485Y-110560400D01*
X72835000Y-110553857D01*
X72835000Y-110501842D01*
X72835097Y-110496896D01*
X72836282Y-110466730D01*
X72837308Y-110440617D01*
X72835443Y-110433582D01*
X72835000Y-110425536D01*
X72835000Y-92997887D01*
X72835873Y-92983077D01*
X72838697Y-92959217D01*
X72839804Y-92949864D01*
X72829396Y-92892874D01*
X72828746Y-92888970D01*
X72821532Y-92840985D01*
X72821532Y-92840984D01*
X72820132Y-92831674D01*
X72817044Y-92825244D01*
X72815763Y-92818228D01*
X72811422Y-92809871D01*
X72811420Y-92809866D01*
X72789052Y-92766807D01*
X72787314Y-92763330D01*
X72762208Y-92711048D01*
X72757364Y-92705808D01*
X72754078Y-92699482D01*
X72749816Y-92694491D01*
X72713037Y-92657712D01*
X72709608Y-92654146D01*
X72677770Y-92619704D01*
X72671375Y-92612786D01*
X72665081Y-92609130D01*
X72659078Y-92603753D01*
X61284911Y-81229586D01*
X61250885Y-81167274D01*
X61249084Y-81156939D01*
X61247864Y-81147674D01*
X61246228Y-81135246D01*
X61202852Y-81030527D01*
X61193515Y-81007986D01*
X61193514Y-81007984D01*
X61190355Y-81000358D01*
X61128505Y-80919753D01*
X61106501Y-80891077D01*
X61106500Y-80891076D01*
X61101474Y-80884526D01*
X61094924Y-80879500D01*
X61094921Y-80879497D01*
X60992196Y-80800673D01*
X60992194Y-80800672D01*
X60985643Y-80795645D01*
X60850754Y-80739772D01*
X60706000Y-80720715D01*
X60697812Y-80721793D01*
X60569432Y-80738694D01*
X60569430Y-80738695D01*
X60561246Y-80739772D01*
X60513430Y-80759578D01*
X60433986Y-80792485D01*
X60433984Y-80792486D01*
X60426358Y-80795645D01*
X60310526Y-80884526D01*
X60221645Y-81000358D01*
X60218486Y-81007984D01*
X60218485Y-81007986D01*
X60209148Y-81030527D01*
X60165772Y-81135246D01*
X60164695Y-81143430D01*
X60164694Y-81143432D01*
X60161555Y-81167274D01*
X60146715Y-81280000D01*
X60165772Y-81424754D01*
X60168931Y-81432380D01*
X60203670Y-81516246D01*
X60221645Y-81559642D01*
X60310526Y-81675474D01*
X60317076Y-81680500D01*
X60317079Y-81680503D01*
X60367424Y-81719134D01*
X60426357Y-81764355D01*
X60526303Y-81805754D01*
X60544714Y-81813380D01*
X60561246Y-81820228D01*
X60569432Y-81821306D01*
X60569433Y-81821306D01*
X60582939Y-81823084D01*
X60647866Y-81851808D01*
X60655586Y-81858911D01*
X71908095Y-93111420D01*
X71942121Y-93173732D01*
X71945000Y-93200515D01*
X71945000Y-96665485D01*
X71924998Y-96733606D01*
X71871342Y-96780099D01*
X71801068Y-96790203D01*
X71736488Y-96760709D01*
X71729905Y-96754580D01*
X61284911Y-86309586D01*
X61250885Y-86247274D01*
X61249084Y-86236939D01*
X61248693Y-86233969D01*
X61246228Y-86215246D01*
X61190355Y-86080358D01*
X61101474Y-85964526D01*
X61094924Y-85959500D01*
X61094921Y-85959497D01*
X60992196Y-85880673D01*
X60992194Y-85880672D01*
X60985643Y-85875645D01*
X60850754Y-85819772D01*
X60706000Y-85800715D01*
X60697812Y-85801793D01*
X60569432Y-85818694D01*
X60569430Y-85818695D01*
X60561246Y-85819772D01*
X60525654Y-85834515D01*
X60433986Y-85872485D01*
X60433984Y-85872486D01*
X60426358Y-85875645D01*
X60310526Y-85964526D01*
X60221645Y-86080358D01*
X60165772Y-86215246D01*
X60146715Y-86360000D01*
X60165772Y-86504754D01*
X60221645Y-86639642D01*
X60310526Y-86755474D01*
X60317076Y-86760500D01*
X60317079Y-86760503D01*
X60419804Y-86839327D01*
X60426357Y-86844355D01*
X60561246Y-86900228D01*
X60569432Y-86901306D01*
X60569433Y-86901306D01*
X60582939Y-86903084D01*
X60647866Y-86931808D01*
X60655586Y-86938911D01*
X71273095Y-97556420D01*
X71307121Y-97618732D01*
X71310000Y-97645515D01*
X71310000Y-101110485D01*
X71289998Y-101178606D01*
X71236342Y-101225099D01*
X71166068Y-101235203D01*
X71101488Y-101205709D01*
X71094905Y-101199580D01*
X61284911Y-91389586D01*
X61250885Y-91327274D01*
X61249084Y-91316939D01*
X61248693Y-91313969D01*
X61246228Y-91295246D01*
X61211489Y-91211380D01*
X61193515Y-91167986D01*
X61193514Y-91167984D01*
X61190355Y-91160358D01*
X61101474Y-91044526D01*
X61094924Y-91039500D01*
X61094921Y-91039497D01*
X60992196Y-90960673D01*
X60992194Y-90960672D01*
X60985643Y-90955645D01*
X60868779Y-90907238D01*
X60858383Y-90902932D01*
X60850754Y-90899772D01*
X60706000Y-90880715D01*
X60697812Y-90881793D01*
X60569432Y-90898694D01*
X60569430Y-90898695D01*
X60561246Y-90899772D01*
X60552666Y-90903326D01*
X60433986Y-90952485D01*
X60433984Y-90952486D01*
X60426358Y-90955645D01*
X60310526Y-91044526D01*
X60221645Y-91160358D01*
X60218486Y-91167984D01*
X60218485Y-91167986D01*
X60200511Y-91211380D01*
X60165772Y-91295246D01*
X60146715Y-91440000D01*
X51300000Y-91440000D01*
X51300000Y-76200000D01*
X60146715Y-76200000D01*
X60165772Y-76344754D01*
X60221645Y-76479642D01*
X60310526Y-76595474D01*
X60317076Y-76600500D01*
X60317079Y-76600503D01*
X60416648Y-76676905D01*
X60426357Y-76684355D01*
X60561246Y-76740228D01*
X60569432Y-76741306D01*
X60569433Y-76741306D01*
X60582939Y-76743084D01*
X60647866Y-76771808D01*
X60655586Y-76778911D01*
X73940095Y-90063420D01*
X73974121Y-90125732D01*
X73977000Y-90152515D01*
X73977000Y-104106113D01*
X73976127Y-104120923D01*
X73973560Y-104142614D01*
X73972196Y-104154136D01*
X73973888Y-104163399D01*
X73982605Y-104211126D01*
X73983255Y-104215034D01*
X73991868Y-104272326D01*
X73994956Y-104278757D01*
X73996237Y-104285771D01*
X74017738Y-104327162D01*
X74022944Y-104337184D01*
X74024713Y-104340725D01*
X74041900Y-104376516D01*
X74049792Y-104392952D01*
X74054634Y-104398190D01*
X74057921Y-104404518D01*
X74062184Y-104409509D01*
X74098963Y-104446288D01*
X74102392Y-104449854D01*
X74140625Y-104491214D01*
X74146919Y-104494870D01*
X74152922Y-104500247D01*
X81743567Y-112090892D01*
X81777593Y-112153204D01*
X81772528Y-112224019D01*
X81746813Y-112265209D01*
X81745392Y-112266455D01*
X81619720Y-112425869D01*
X81617031Y-112430980D01*
X81617029Y-112430983D01*
X81604073Y-112455609D01*
X81525203Y-112605515D01*
X81465007Y-112799378D01*
X81441148Y-113000964D01*
X81454424Y-113203522D01*
X81455845Y-113209118D01*
X81455846Y-113209123D01*
X81476119Y-113288945D01*
X81504392Y-113400269D01*
X81506809Y-113405512D01*
X81544010Y-113486208D01*
X81589377Y-113584616D01*
X81706533Y-113750389D01*
X81851938Y-113892035D01*
X82020720Y-114004812D01*
X82026023Y-114007090D01*
X82026026Y-114007092D01*
X82114707Y-114045192D01*
X82207228Y-114084942D01*
X82280244Y-114101464D01*
X82399579Y-114128467D01*
X82399584Y-114128468D01*
X82405216Y-114129742D01*
X82410987Y-114129969D01*
X82410989Y-114129969D01*
X82470756Y-114132317D01*
X82608053Y-114137712D01*
X82708499Y-114123148D01*
X82803231Y-114109413D01*
X82803236Y-114109412D01*
X82808945Y-114108584D01*
X82814409Y-114106729D01*
X82814414Y-114106728D01*
X82995693Y-114045192D01*
X82995698Y-114045190D01*
X83001165Y-114043334D01*
X83178276Y-113944147D01*
X83240934Y-113892035D01*
X83329913Y-113818031D01*
X83334345Y-113814345D01*
X83464147Y-113658276D01*
X83563334Y-113481165D01*
X83565190Y-113475698D01*
X83565192Y-113475693D01*
X83626728Y-113294414D01*
X83626729Y-113294409D01*
X83628584Y-113288945D01*
X83629412Y-113283236D01*
X83629413Y-113283231D01*
X83657179Y-113091727D01*
X83657712Y-113088053D01*
X83659232Y-113030000D01*
X83640658Y-112827859D01*
X83639090Y-112822298D01*
X83587125Y-112638046D01*
X83587124Y-112638044D01*
X83585557Y-112632487D01*
X83574978Y-112611033D01*
X83498331Y-112455609D01*
X83495776Y-112450428D01*
X83374320Y-112287779D01*
X83225258Y-112149987D01*
X83220375Y-112146906D01*
X83220371Y-112146903D01*
X83058464Y-112044748D01*
X83053581Y-112041667D01*
X83048220Y-112039528D01*
X82910912Y-111984747D01*
X82865079Y-111953247D01*
X82831375Y-111916786D01*
X82825081Y-111913130D01*
X82819078Y-111907753D01*
X82699301Y-111787976D01*
X82665275Y-111725664D01*
X82670340Y-111654849D01*
X82712887Y-111598013D01*
X82770316Y-111574185D01*
X82803231Y-111569413D01*
X82803236Y-111569412D01*
X82808945Y-111568584D01*
X82814409Y-111566729D01*
X82814414Y-111566728D01*
X82995693Y-111505192D01*
X82995698Y-111505190D01*
X83001165Y-111503334D01*
X83178276Y-111404147D01*
X83202359Y-111384118D01*
X83329913Y-111278031D01*
X83334345Y-111274345D01*
X83464147Y-111118276D01*
X83563334Y-110941165D01*
X83565190Y-110935698D01*
X83565192Y-110935693D01*
X83626728Y-110754414D01*
X83626729Y-110754409D01*
X83628584Y-110748945D01*
X83629412Y-110743236D01*
X83629413Y-110743231D01*
X83653902Y-110574327D01*
X83657712Y-110548053D01*
X83659232Y-110490000D01*
X83640658Y-110287859D01*
X83639090Y-110282298D01*
X83587125Y-110098046D01*
X83587124Y-110098044D01*
X83585557Y-110092487D01*
X83574978Y-110071033D01*
X83498331Y-109915609D01*
X83495776Y-109910428D01*
X83374320Y-109747779D01*
X83225258Y-109609987D01*
X83220375Y-109606906D01*
X83220371Y-109606903D01*
X83058464Y-109504748D01*
X83053581Y-109501667D01*
X82865039Y-109426446D01*
X82859379Y-109425320D01*
X82859375Y-109425319D01*
X82671613Y-109387971D01*
X82671610Y-109387971D01*
X82665946Y-109386844D01*
X82660171Y-109386768D01*
X82660167Y-109386768D01*
X82558793Y-109385441D01*
X82462971Y-109384187D01*
X82457274Y-109385166D01*
X82457273Y-109385166D01*
X82360790Y-109401745D01*
X82262910Y-109418564D01*
X82072463Y-109488824D01*
X81898010Y-109592612D01*
X81849272Y-109635354D01*
X81785309Y-109691448D01*
X81720904Y-109721325D01*
X81650572Y-109711639D01*
X81613136Y-109685811D01*
X75665905Y-103738580D01*
X75631879Y-103676268D01*
X75629000Y-103649485D01*
X75629000Y-101962515D01*
X75649002Y-101894394D01*
X75702658Y-101847901D01*
X75772932Y-101837797D01*
X75837512Y-101867291D01*
X75844095Y-101873420D01*
X81464530Y-107493855D01*
X81498556Y-107556167D01*
X81495768Y-107620312D01*
X81465007Y-107719378D01*
X81441148Y-107920964D01*
X81454424Y-108123522D01*
X81455845Y-108129118D01*
X81455846Y-108129123D01*
X81476119Y-108208945D01*
X81504392Y-108320269D01*
X81506809Y-108325512D01*
X81544010Y-108406208D01*
X81589377Y-108504616D01*
X81706533Y-108670389D01*
X81851938Y-108812035D01*
X82020720Y-108924812D01*
X82026023Y-108927090D01*
X82026026Y-108927092D01*
X82167240Y-108987762D01*
X82207228Y-109004942D01*
X82280244Y-109021464D01*
X82399579Y-109048467D01*
X82399584Y-109048468D01*
X82405216Y-109049742D01*
X82410987Y-109049969D01*
X82410989Y-109049969D01*
X82470756Y-109052317D01*
X82608053Y-109057712D01*
X82708499Y-109043148D01*
X82803231Y-109029413D01*
X82803236Y-109029412D01*
X82808945Y-109028584D01*
X82814409Y-109026729D01*
X82814414Y-109026728D01*
X82995693Y-108965192D01*
X82995698Y-108965190D01*
X83001165Y-108963334D01*
X83178276Y-108864147D01*
X83202359Y-108844118D01*
X83329913Y-108738031D01*
X83334345Y-108734345D01*
X83464147Y-108578276D01*
X83563334Y-108401165D01*
X83565190Y-108395698D01*
X83565192Y-108395693D01*
X83626728Y-108214414D01*
X83626729Y-108214409D01*
X83628584Y-108208945D01*
X83629412Y-108203236D01*
X83629413Y-108203231D01*
X83657179Y-108011727D01*
X83657712Y-108008053D01*
X83659232Y-107950000D01*
X83640658Y-107747859D01*
X83639090Y-107742298D01*
X83587125Y-107558046D01*
X83587124Y-107558044D01*
X83585557Y-107552487D01*
X83574978Y-107531033D01*
X83498331Y-107375609D01*
X83495776Y-107370428D01*
X83468888Y-107334420D01*
X83377777Y-107212409D01*
X83374320Y-107207779D01*
X83225258Y-107069987D01*
X83220375Y-107066906D01*
X83220371Y-107066903D01*
X83058464Y-106964748D01*
X83053581Y-106961667D01*
X82865039Y-106886446D01*
X82859379Y-106885320D01*
X82859375Y-106885319D01*
X82671613Y-106847971D01*
X82671610Y-106847971D01*
X82665946Y-106846844D01*
X82660171Y-106846768D01*
X82660167Y-106846768D01*
X82558793Y-106845441D01*
X82462971Y-106844187D01*
X82457274Y-106845166D01*
X82457273Y-106845166D01*
X82360790Y-106861745D01*
X82262910Y-106878564D01*
X82225338Y-106892425D01*
X82154506Y-106897237D01*
X82092633Y-106863308D01*
X81958920Y-106729595D01*
X81924894Y-106667283D01*
X81929959Y-106596468D01*
X81972506Y-106539632D01*
X82039026Y-106514821D01*
X82048015Y-106514500D01*
X83391542Y-106514499D01*
X83425066Y-106514499D01*
X83460818Y-106507388D01*
X83487126Y-106502156D01*
X83487128Y-106502155D01*
X83499301Y-106499734D01*
X83509621Y-106492839D01*
X83509622Y-106492838D01*
X83573168Y-106450377D01*
X83583484Y-106443484D01*
X83639734Y-106359301D01*
X83654500Y-106285067D01*
X83654499Y-104534934D01*
X83645762Y-104491008D01*
X83642156Y-104472874D01*
X83642155Y-104472872D01*
X83639734Y-104460699D01*
X83605530Y-104409509D01*
X83590377Y-104386832D01*
X83583484Y-104376516D01*
X83499301Y-104320266D01*
X83425067Y-104305500D01*
X82550142Y-104305500D01*
X81674934Y-104305501D01*
X81639182Y-104312612D01*
X81612874Y-104317844D01*
X81612872Y-104317845D01*
X81600699Y-104320266D01*
X81590379Y-104327161D01*
X81590378Y-104327162D01*
X81570080Y-104340725D01*
X81516516Y-104376516D01*
X81460266Y-104460699D01*
X81445500Y-104534933D01*
X81445501Y-105373982D01*
X81445501Y-105911986D01*
X81425499Y-105980107D01*
X81371843Y-106026600D01*
X81301569Y-106036704D01*
X81236989Y-106007211D01*
X81230406Y-106001081D01*
X76427905Y-101198580D01*
X76393879Y-101136268D01*
X76391000Y-101109485D01*
X76391000Y-98184933D01*
X81059500Y-98184933D01*
X81059501Y-99935066D01*
X81074266Y-100009301D01*
X81081161Y-100019620D01*
X81081162Y-100019622D01*
X81121516Y-100080015D01*
X81130516Y-100093484D01*
X81214699Y-100149734D01*
X81288933Y-100164500D01*
X82163858Y-100164500D01*
X83039066Y-100164499D01*
X83074818Y-100157388D01*
X83101126Y-100152156D01*
X83101128Y-100152155D01*
X83113301Y-100149734D01*
X83123621Y-100142839D01*
X83123622Y-100142838D01*
X83187168Y-100100377D01*
X83197484Y-100093484D01*
X83253734Y-100009301D01*
X83268500Y-99935067D01*
X83268499Y-99030964D01*
X83595148Y-99030964D01*
X83608424Y-99233522D01*
X83609845Y-99239118D01*
X83609846Y-99239123D01*
X83630119Y-99318945D01*
X83658392Y-99430269D01*
X83660809Y-99435512D01*
X83698010Y-99516208D01*
X83743377Y-99614616D01*
X83746710Y-99619332D01*
X83847724Y-99762264D01*
X83860533Y-99780389D01*
X84005938Y-99922035D01*
X84174720Y-100034812D01*
X84180023Y-100037090D01*
X84180026Y-100037092D01*
X84311283Y-100093484D01*
X84361228Y-100114942D01*
X84434244Y-100131464D01*
X84553579Y-100158467D01*
X84553584Y-100158468D01*
X84559216Y-100159742D01*
X84564987Y-100159969D01*
X84564989Y-100159969D01*
X84624756Y-100162317D01*
X84762053Y-100167712D01*
X84869348Y-100152155D01*
X84957231Y-100139413D01*
X84957236Y-100139412D01*
X84962945Y-100138584D01*
X84968409Y-100136729D01*
X84968414Y-100136728D01*
X85149693Y-100075192D01*
X85149698Y-100075190D01*
X85155165Y-100073334D01*
X85332276Y-99974147D01*
X85371969Y-99941135D01*
X85483913Y-99848031D01*
X85488345Y-99844345D01*
X85545463Y-99775669D01*
X85614453Y-99692718D01*
X85614455Y-99692715D01*
X85618147Y-99688276D01*
X85717334Y-99511165D01*
X85719190Y-99505698D01*
X85719192Y-99505693D01*
X85780728Y-99324414D01*
X85780729Y-99324409D01*
X85782584Y-99318945D01*
X85783412Y-99313236D01*
X85783413Y-99313231D01*
X85800991Y-99191996D01*
X85811712Y-99118053D01*
X85813232Y-99060000D01*
X85794658Y-98857859D01*
X85793090Y-98852299D01*
X85741125Y-98668046D01*
X85741124Y-98668044D01*
X85739557Y-98662487D01*
X85736862Y-98657021D01*
X85652331Y-98485609D01*
X85649776Y-98480428D01*
X85528320Y-98317779D01*
X85379258Y-98179987D01*
X85374375Y-98176906D01*
X85374371Y-98176903D01*
X85212464Y-98074748D01*
X85207581Y-98071667D01*
X85019039Y-97996446D01*
X85013379Y-97995320D01*
X85013375Y-97995319D01*
X84825613Y-97957971D01*
X84825610Y-97957971D01*
X84819946Y-97956844D01*
X84814171Y-97956768D01*
X84814167Y-97956768D01*
X84712793Y-97955441D01*
X84616971Y-97954187D01*
X84611274Y-97955166D01*
X84611273Y-97955166D01*
X84523397Y-97970266D01*
X84416910Y-97988564D01*
X84226463Y-98058824D01*
X84052010Y-98162612D01*
X84047670Y-98166418D01*
X84047666Y-98166421D01*
X83957329Y-98245645D01*
X83899392Y-98296455D01*
X83773720Y-98455869D01*
X83771031Y-98460980D01*
X83771029Y-98460983D01*
X83758073Y-98485609D01*
X83679203Y-98635515D01*
X83619007Y-98829378D01*
X83595148Y-99030964D01*
X83268499Y-99030964D01*
X83268499Y-98184934D01*
X83253734Y-98110699D01*
X83237533Y-98086452D01*
X83204377Y-98036832D01*
X83197484Y-98026516D01*
X83113301Y-97970266D01*
X83039067Y-97955500D01*
X82164142Y-97955500D01*
X81288934Y-97955501D01*
X81253182Y-97962612D01*
X81226874Y-97967844D01*
X81226872Y-97967845D01*
X81214699Y-97970266D01*
X81204379Y-97977161D01*
X81204378Y-97977162D01*
X81143985Y-98017516D01*
X81130516Y-98026516D01*
X81074266Y-98110699D01*
X81059500Y-98184933D01*
X76391000Y-98184933D01*
X76391000Y-93933367D01*
X98225906Y-93933367D01*
X98235349Y-94113564D01*
X98237162Y-94120144D01*
X98237162Y-94120147D01*
X98279363Y-94273351D01*
X98283268Y-94287530D01*
X98367424Y-94447148D01*
X98371826Y-94452357D01*
X98371828Y-94452360D01*
X98479487Y-94579757D01*
X98479491Y-94579761D01*
X98483894Y-94584971D01*
X98489318Y-94589118D01*
X98489319Y-94589119D01*
X98621821Y-94690425D01*
X98621825Y-94690428D01*
X98627242Y-94694569D01*
X98633422Y-94697451D01*
X98633424Y-94697452D01*
X98701066Y-94728994D01*
X98790780Y-94770828D01*
X98868984Y-94788309D01*
X98961835Y-94809064D01*
X98961841Y-94809065D01*
X98966879Y-94810191D01*
X98972406Y-94810500D01*
X99105077Y-94810500D01*
X99239389Y-94795909D01*
X99410409Y-94738355D01*
X99565080Y-94645419D01*
X99570042Y-94640727D01*
X99691229Y-94526126D01*
X99691231Y-94526124D01*
X99696187Y-94521437D01*
X99797612Y-94372195D01*
X99829059Y-94293572D01*
X99862089Y-94210992D01*
X99862090Y-94210987D01*
X99864623Y-94204655D01*
X99894094Y-94026633D01*
X99884651Y-93846436D01*
X99857815Y-93749008D01*
X99838545Y-93679052D01*
X99836732Y-93672470D01*
X99752576Y-93512852D01*
X99748174Y-93507643D01*
X99748172Y-93507640D01*
X99640513Y-93380243D01*
X99640509Y-93380239D01*
X99636106Y-93375029D01*
X99630681Y-93370881D01*
X99498179Y-93269575D01*
X99498175Y-93269572D01*
X99492758Y-93265431D01*
X99486578Y-93262549D01*
X99486576Y-93262548D01*
X99406399Y-93225161D01*
X99329220Y-93189172D01*
X99213718Y-93163354D01*
X99158165Y-93150936D01*
X99158159Y-93150935D01*
X99153121Y-93149809D01*
X99147594Y-93149500D01*
X99014923Y-93149500D01*
X98880611Y-93164091D01*
X98709591Y-93221645D01*
X98554920Y-93314581D01*
X98549960Y-93319272D01*
X98549958Y-93319273D01*
X98485485Y-93380243D01*
X98423813Y-93438563D01*
X98322388Y-93587805D01*
X98319855Y-93594139D01*
X98319853Y-93594142D01*
X98257911Y-93749008D01*
X98257910Y-93749013D01*
X98255377Y-93755345D01*
X98225906Y-93933367D01*
X76391000Y-93933367D01*
X76391000Y-90424000D01*
X78942715Y-90424000D01*
X78961772Y-90568754D01*
X79017645Y-90703642D01*
X79106526Y-90819474D01*
X79113076Y-90824500D01*
X79113079Y-90824503D01*
X79215803Y-90903326D01*
X79222357Y-90908355D01*
X79357246Y-90964228D01*
X79502000Y-90983285D01*
X79510188Y-90982207D01*
X79638566Y-90965306D01*
X79646754Y-90964228D01*
X79781643Y-90908355D01*
X79798998Y-90895038D01*
X79865218Y-90869437D01*
X79875702Y-90869000D01*
X81805485Y-90869000D01*
X81873606Y-90889002D01*
X81894580Y-90905905D01*
X82098089Y-91109414D01*
X82132115Y-91171726D01*
X82133916Y-91182061D01*
X82136772Y-91203754D01*
X82139931Y-91211380D01*
X82174670Y-91295246D01*
X82192645Y-91338642D01*
X82281526Y-91454474D01*
X82288076Y-91459500D01*
X82288079Y-91459503D01*
X82390804Y-91538327D01*
X82397357Y-91543355D01*
X82477540Y-91576568D01*
X82515714Y-91592380D01*
X82532246Y-91599228D01*
X82677000Y-91618285D01*
X82685188Y-91617207D01*
X82813566Y-91600306D01*
X82821754Y-91599228D01*
X82838287Y-91592380D01*
X82876460Y-91576568D01*
X82956643Y-91543355D01*
X82963196Y-91538327D01*
X83065921Y-91459503D01*
X83065924Y-91459500D01*
X83072474Y-91454474D01*
X83161355Y-91338642D01*
X83179331Y-91295246D01*
X83214069Y-91211380D01*
X83217228Y-91203754D01*
X83236285Y-91059000D01*
X83217228Y-90914246D01*
X83161355Y-90779358D01*
X83072474Y-90663526D01*
X83065924Y-90658500D01*
X83065921Y-90658497D01*
X82963196Y-90579673D01*
X82963194Y-90579672D01*
X82956643Y-90574645D01*
X82821754Y-90518772D01*
X82800067Y-90515917D01*
X82735140Y-90487196D01*
X82727417Y-90480091D01*
X82380623Y-90133298D01*
X82370768Y-90122208D01*
X82355895Y-90103342D01*
X82350064Y-90095945D01*
X82342317Y-90090590D01*
X82342315Y-90090589D01*
X82302419Y-90063016D01*
X82299196Y-90060713D01*
X82260160Y-90031880D01*
X82252581Y-90026282D01*
X82245850Y-90023918D01*
X82239984Y-90019864D01*
X82184766Y-90002401D01*
X82181025Y-90001153D01*
X82135214Y-89985065D01*
X82135209Y-89985064D01*
X82126327Y-89981945D01*
X82119198Y-89981665D01*
X82112400Y-89979515D01*
X82105857Y-89979000D01*
X82053841Y-89979000D01*
X82048895Y-89978903D01*
X82048633Y-89978893D01*
X81992616Y-89976692D01*
X81985581Y-89978557D01*
X81977535Y-89979000D01*
X79875702Y-89979000D01*
X79807581Y-89958998D01*
X79798998Y-89952962D01*
X79797931Y-89952144D01*
X79781643Y-89939645D01*
X79646754Y-89883772D01*
X79502000Y-89864715D01*
X79493812Y-89865793D01*
X79365432Y-89882694D01*
X79365430Y-89882695D01*
X79357246Y-89883772D01*
X79309430Y-89903578D01*
X79229986Y-89936485D01*
X79229984Y-89936486D01*
X79222358Y-89939645D01*
X79142199Y-90001153D01*
X79117815Y-90019864D01*
X79106526Y-90028526D01*
X79017645Y-90144358D01*
X78961772Y-90279246D01*
X78942715Y-90424000D01*
X76391000Y-90424000D01*
X76391000Y-81661000D01*
X84403715Y-81661000D01*
X84422772Y-81805754D01*
X84478645Y-81940642D01*
X84567526Y-82056474D01*
X84574076Y-82061500D01*
X84574079Y-82061503D01*
X84676804Y-82140327D01*
X84683357Y-82145355D01*
X84818246Y-82201228D01*
X84963000Y-82220285D01*
X84971188Y-82219207D01*
X85099566Y-82202306D01*
X85107754Y-82201228D01*
X85242643Y-82145355D01*
X85249196Y-82140327D01*
X85351921Y-82061503D01*
X85351924Y-82061500D01*
X85358474Y-82056474D01*
X85447355Y-81940642D01*
X85503228Y-81805754D01*
X85506084Y-81784061D01*
X85534808Y-81719134D01*
X85541911Y-81711414D01*
X88547361Y-78705964D01*
X97951148Y-78705964D01*
X97964424Y-78908522D01*
X97965845Y-78914118D01*
X97965846Y-78914123D01*
X97986119Y-78993945D01*
X98014392Y-79105269D01*
X98016809Y-79110512D01*
X98054010Y-79191208D01*
X98099377Y-79289616D01*
X98216533Y-79455389D01*
X98361938Y-79597035D01*
X98530720Y-79709812D01*
X98536023Y-79712090D01*
X98536026Y-79712092D01*
X98624707Y-79750192D01*
X98717228Y-79789942D01*
X98790244Y-79806464D01*
X98909579Y-79833467D01*
X98909584Y-79833468D01*
X98915216Y-79834742D01*
X98920987Y-79834969D01*
X98920989Y-79834969D01*
X98980756Y-79837317D01*
X99118053Y-79842712D01*
X99218499Y-79828148D01*
X99313231Y-79814413D01*
X99313236Y-79814412D01*
X99318945Y-79813584D01*
X99324409Y-79811729D01*
X99324414Y-79811728D01*
X99505693Y-79750192D01*
X99505698Y-79750190D01*
X99511165Y-79748334D01*
X99688276Y-79649147D01*
X99750934Y-79597035D01*
X99839913Y-79523031D01*
X99844345Y-79519345D01*
X99974147Y-79363276D01*
X100073334Y-79186165D01*
X100075190Y-79180698D01*
X100075192Y-79180693D01*
X100136728Y-78999414D01*
X100136729Y-78999409D01*
X100138584Y-78993945D01*
X100139412Y-78988236D01*
X100139413Y-78988231D01*
X100167179Y-78796727D01*
X100167712Y-78793053D01*
X100169232Y-78735000D01*
X100150658Y-78532859D01*
X100149090Y-78527299D01*
X100097125Y-78343046D01*
X100097124Y-78343044D01*
X100095557Y-78337487D01*
X100084978Y-78316033D01*
X100008331Y-78160609D01*
X100005776Y-78155428D01*
X99884320Y-77992779D01*
X99735258Y-77854987D01*
X99730375Y-77851906D01*
X99730371Y-77851903D01*
X99568464Y-77749748D01*
X99563581Y-77746667D01*
X99375039Y-77671446D01*
X99369379Y-77670320D01*
X99369375Y-77670319D01*
X99181613Y-77632971D01*
X99181610Y-77632971D01*
X99175946Y-77631844D01*
X99170171Y-77631768D01*
X99170167Y-77631768D01*
X99068793Y-77630441D01*
X98972971Y-77629187D01*
X98967274Y-77630166D01*
X98967273Y-77630166D01*
X98778607Y-77662585D01*
X98772910Y-77663564D01*
X98582463Y-77733824D01*
X98408010Y-77837612D01*
X98403670Y-77841418D01*
X98403666Y-77841421D01*
X98370505Y-77870503D01*
X98255392Y-77971455D01*
X98129720Y-78130869D01*
X98127031Y-78135980D01*
X98127029Y-78135983D01*
X98114073Y-78160609D01*
X98035203Y-78310515D01*
X97975007Y-78504378D01*
X97951148Y-78705964D01*
X88547361Y-78705964D01*
X89783325Y-77470000D01*
X95198715Y-77470000D01*
X95217772Y-77614754D01*
X95223782Y-77629263D01*
X95268316Y-77736776D01*
X95273645Y-77749642D01*
X95278672Y-77756193D01*
X95352113Y-77851903D01*
X95362526Y-77865474D01*
X95369076Y-77870500D01*
X95369079Y-77870503D01*
X95471804Y-77949327D01*
X95478357Y-77954355D01*
X95613246Y-78010228D01*
X95758000Y-78029285D01*
X95766188Y-78028207D01*
X95894566Y-78011306D01*
X95902754Y-78010228D01*
X96037643Y-77954355D01*
X96044196Y-77949327D01*
X96146921Y-77870503D01*
X96146924Y-77870500D01*
X96153474Y-77865474D01*
X96163888Y-77851903D01*
X96237328Y-77756193D01*
X96242355Y-77749642D01*
X96247685Y-77736776D01*
X96292218Y-77629263D01*
X96298228Y-77614754D01*
X96301084Y-77593061D01*
X96329808Y-77528134D01*
X96336911Y-77520414D01*
X97180420Y-76676905D01*
X97242732Y-76642879D01*
X97269515Y-76640000D01*
X97968185Y-76640000D01*
X98036306Y-76660002D01*
X98082610Y-76713247D01*
X98096958Y-76744370D01*
X98096961Y-76744375D01*
X98099377Y-76749616D01*
X98102710Y-76754332D01*
X98199360Y-76891089D01*
X98216533Y-76915389D01*
X98220675Y-76919424D01*
X98267657Y-76965191D01*
X98361938Y-77057035D01*
X98530720Y-77169812D01*
X98536023Y-77172090D01*
X98536026Y-77172092D01*
X98624707Y-77210192D01*
X98717228Y-77249942D01*
X98790244Y-77266464D01*
X98909579Y-77293467D01*
X98909584Y-77293468D01*
X98915216Y-77294742D01*
X98920987Y-77294969D01*
X98920989Y-77294969D01*
X98980756Y-77297317D01*
X99118053Y-77302712D01*
X99218499Y-77288148D01*
X99313231Y-77274413D01*
X99313236Y-77274412D01*
X99318945Y-77273584D01*
X99324409Y-77271729D01*
X99324414Y-77271728D01*
X99505693Y-77210192D01*
X99505698Y-77210190D01*
X99511165Y-77208334D01*
X99543264Y-77190358D01*
X99585683Y-77166602D01*
X99688276Y-77109147D01*
X99722033Y-77081072D01*
X99839913Y-76983031D01*
X99844345Y-76979345D01*
X99917747Y-76891089D01*
X99970453Y-76827718D01*
X99970455Y-76827715D01*
X99974147Y-76823276D01*
X100066361Y-76658616D01*
X100070510Y-76651208D01*
X100070511Y-76651206D01*
X100073334Y-76646165D01*
X100075190Y-76640698D01*
X100075192Y-76640693D01*
X100136728Y-76459414D01*
X100136729Y-76459409D01*
X100138584Y-76453945D01*
X100139412Y-76448236D01*
X100139413Y-76448231D01*
X100167179Y-76256727D01*
X100167712Y-76253053D01*
X100169232Y-76195000D01*
X100154831Y-76038273D01*
X100151187Y-75998613D01*
X100151186Y-75998610D01*
X100150658Y-75992859D01*
X100147442Y-75981457D01*
X100097125Y-75803046D01*
X100097124Y-75803044D01*
X100095557Y-75797487D01*
X100091305Y-75788863D01*
X100008331Y-75620609D01*
X100005776Y-75615428D01*
X99884320Y-75452779D01*
X99735258Y-75314987D01*
X99730375Y-75311906D01*
X99730371Y-75311903D01*
X99568464Y-75209748D01*
X99563581Y-75206667D01*
X99375039Y-75131446D01*
X99369379Y-75130320D01*
X99369375Y-75130319D01*
X99181613Y-75092971D01*
X99181610Y-75092971D01*
X99175946Y-75091844D01*
X99170171Y-75091768D01*
X99170167Y-75091768D01*
X99068793Y-75090441D01*
X98972971Y-75089187D01*
X98967274Y-75090166D01*
X98967273Y-75090166D01*
X98778607Y-75122585D01*
X98772910Y-75123564D01*
X98582463Y-75193824D01*
X98408010Y-75297612D01*
X98403670Y-75301418D01*
X98403666Y-75301421D01*
X98383723Y-75318911D01*
X98255392Y-75431455D01*
X98129720Y-75590869D01*
X98127031Y-75595980D01*
X98127029Y-75595983D01*
X98081422Y-75682668D01*
X98032003Y-75733640D01*
X97969914Y-75750000D01*
X97066887Y-75750000D01*
X97052077Y-75749127D01*
X97028217Y-75746303D01*
X97018864Y-75745196D01*
X97009600Y-75746888D01*
X97009599Y-75746888D01*
X96961874Y-75755604D01*
X96957970Y-75756254D01*
X96909985Y-75763468D01*
X96909984Y-75763468D01*
X96900674Y-75764868D01*
X96894244Y-75767956D01*
X96887228Y-75769237D01*
X96878871Y-75773578D01*
X96878866Y-75773580D01*
X96835807Y-75795948D01*
X96832330Y-75797686D01*
X96780048Y-75822792D01*
X96774808Y-75827636D01*
X96768482Y-75830922D01*
X96763491Y-75835184D01*
X96726712Y-75871963D01*
X96723146Y-75875392D01*
X96681786Y-75913625D01*
X96678130Y-75919919D01*
X96672753Y-75925922D01*
X95707586Y-76891089D01*
X95645274Y-76925115D01*
X95634939Y-76926916D01*
X95631969Y-76927307D01*
X95613246Y-76929772D01*
X95605619Y-76932931D01*
X95605620Y-76932931D01*
X95485986Y-76982485D01*
X95485984Y-76982486D01*
X95478358Y-76985645D01*
X95362526Y-77074526D01*
X95273645Y-77190358D01*
X95270486Y-77197984D01*
X95270485Y-77197986D01*
X95266199Y-77208334D01*
X95217772Y-77325246D01*
X95198715Y-77470000D01*
X89783325Y-77470000D01*
X90206698Y-77046627D01*
X90217787Y-77036772D01*
X90236658Y-77021895D01*
X90244055Y-77016064D01*
X90276995Y-76968403D01*
X90279290Y-76965191D01*
X90305451Y-76929772D01*
X90313718Y-76918580D01*
X90316081Y-76911851D01*
X90320136Y-76905984D01*
X90337619Y-76850703D01*
X90338842Y-76847038D01*
X90358055Y-76792327D01*
X90358335Y-76785198D01*
X90360485Y-76778400D01*
X90361000Y-76771857D01*
X90361000Y-76719841D01*
X90361097Y-76714895D01*
X90361162Y-76713247D01*
X90363308Y-76658616D01*
X90361443Y-76651581D01*
X90361000Y-76643535D01*
X90361000Y-73625964D01*
X97951148Y-73625964D01*
X97964424Y-73828522D01*
X97965845Y-73834118D01*
X97965846Y-73834123D01*
X97986119Y-73913945D01*
X98014392Y-74025269D01*
X98016809Y-74030512D01*
X98066791Y-74138931D01*
X98099377Y-74209616D01*
X98216533Y-74375389D01*
X98361938Y-74517035D01*
X98530720Y-74629812D01*
X98536023Y-74632090D01*
X98536026Y-74632092D01*
X98711921Y-74707662D01*
X98717228Y-74709942D01*
X98790024Y-74726414D01*
X98909579Y-74753467D01*
X98909584Y-74753468D01*
X98915216Y-74754742D01*
X98920987Y-74754969D01*
X98920989Y-74754969D01*
X98980756Y-74757317D01*
X99118053Y-74762712D01*
X99218499Y-74748148D01*
X99313231Y-74734413D01*
X99313236Y-74734412D01*
X99318945Y-74733584D01*
X99324409Y-74731729D01*
X99324414Y-74731728D01*
X99505693Y-74670192D01*
X99505698Y-74670190D01*
X99511165Y-74668334D01*
X99688276Y-74569147D01*
X99724005Y-74539432D01*
X99839913Y-74443031D01*
X99844345Y-74439345D01*
X99974147Y-74283276D01*
X100056753Y-74135772D01*
X100070510Y-74111208D01*
X100070511Y-74111206D01*
X100073334Y-74106165D01*
X100075190Y-74100698D01*
X100075192Y-74100693D01*
X100136728Y-73919414D01*
X100136729Y-73919409D01*
X100138584Y-73913945D01*
X100139412Y-73908236D01*
X100139413Y-73908231D01*
X100167179Y-73716727D01*
X100167712Y-73713053D01*
X100169232Y-73655000D01*
X100156177Y-73512919D01*
X100151187Y-73458613D01*
X100151186Y-73458610D01*
X100150658Y-73452859D01*
X100147266Y-73440831D01*
X100097125Y-73263046D01*
X100097124Y-73263044D01*
X100095557Y-73257487D01*
X100085123Y-73236327D01*
X100008331Y-73080609D01*
X100005776Y-73075428D01*
X99884320Y-72912779D01*
X99735258Y-72774987D01*
X99730375Y-72771906D01*
X99730371Y-72771903D01*
X99568464Y-72669748D01*
X99563581Y-72666667D01*
X99375039Y-72591446D01*
X99369379Y-72590320D01*
X99369375Y-72590319D01*
X99181613Y-72552971D01*
X99181610Y-72552971D01*
X99175946Y-72551844D01*
X99170171Y-72551768D01*
X99170167Y-72551768D01*
X99068793Y-72550441D01*
X98972971Y-72549187D01*
X98967274Y-72550166D01*
X98967273Y-72550166D01*
X98778607Y-72582585D01*
X98772910Y-72583564D01*
X98582463Y-72653824D01*
X98408010Y-72757612D01*
X98403670Y-72761418D01*
X98403666Y-72761421D01*
X98383723Y-72778911D01*
X98255392Y-72891455D01*
X98129720Y-73050869D01*
X98127031Y-73055980D01*
X98127029Y-73055983D01*
X98114073Y-73080609D01*
X98035203Y-73230515D01*
X97975007Y-73424378D01*
X97951148Y-73625964D01*
X90361000Y-73625964D01*
X90361000Y-71085964D01*
X97951148Y-71085964D01*
X97964424Y-71288522D01*
X97965845Y-71294118D01*
X97965846Y-71294123D01*
X97986119Y-71373945D01*
X98014392Y-71485269D01*
X98016809Y-71490512D01*
X98054010Y-71571208D01*
X98099377Y-71669616D01*
X98216533Y-71835389D01*
X98361938Y-71977035D01*
X98530720Y-72089812D01*
X98536023Y-72092090D01*
X98536026Y-72092092D01*
X98624707Y-72130192D01*
X98717228Y-72169942D01*
X98790244Y-72186464D01*
X98909579Y-72213467D01*
X98909584Y-72213468D01*
X98915216Y-72214742D01*
X98920987Y-72214969D01*
X98920989Y-72214969D01*
X98980756Y-72217317D01*
X99118053Y-72222712D01*
X99218499Y-72208148D01*
X99313231Y-72194413D01*
X99313236Y-72194412D01*
X99318945Y-72193584D01*
X99324409Y-72191729D01*
X99324414Y-72191728D01*
X99505693Y-72130192D01*
X99505698Y-72130190D01*
X99511165Y-72128334D01*
X99688276Y-72029147D01*
X99750934Y-71977035D01*
X99839913Y-71903031D01*
X99844345Y-71899345D01*
X99974147Y-71743276D01*
X100073334Y-71566165D01*
X100075190Y-71560698D01*
X100075192Y-71560693D01*
X100136728Y-71379414D01*
X100136729Y-71379409D01*
X100138584Y-71373945D01*
X100139412Y-71368236D01*
X100139413Y-71368231D01*
X100167179Y-71176727D01*
X100167712Y-71173053D01*
X100169232Y-71115000D01*
X100150658Y-70912859D01*
X100149090Y-70907299D01*
X100097125Y-70723046D01*
X100097124Y-70723044D01*
X100095557Y-70717487D01*
X100084978Y-70696033D01*
X100008331Y-70540609D01*
X100005776Y-70535428D01*
X99884320Y-70372779D01*
X99735258Y-70234987D01*
X99730375Y-70231906D01*
X99730371Y-70231903D01*
X99568464Y-70129748D01*
X99563581Y-70126667D01*
X99375039Y-70051446D01*
X99369379Y-70050320D01*
X99369375Y-70050319D01*
X99181613Y-70012971D01*
X99181610Y-70012971D01*
X99175946Y-70011844D01*
X99170171Y-70011768D01*
X99170167Y-70011768D01*
X99068793Y-70010441D01*
X98972971Y-70009187D01*
X98967274Y-70010166D01*
X98967273Y-70010166D01*
X98778607Y-70042585D01*
X98772910Y-70043564D01*
X98582463Y-70113824D01*
X98408010Y-70217612D01*
X98403670Y-70221418D01*
X98403666Y-70221421D01*
X98383723Y-70238911D01*
X98255392Y-70351455D01*
X98129720Y-70510869D01*
X98127031Y-70515980D01*
X98127029Y-70515983D01*
X98079128Y-70607027D01*
X98035203Y-70690515D01*
X97975007Y-70884378D01*
X97951148Y-71085964D01*
X90361000Y-71085964D01*
X90361000Y-68545964D01*
X97951148Y-68545964D01*
X97964424Y-68748522D01*
X97965845Y-68754118D01*
X97965846Y-68754123D01*
X97986119Y-68833945D01*
X98014392Y-68945269D01*
X98016809Y-68950512D01*
X98054010Y-69031208D01*
X98099377Y-69129616D01*
X98216533Y-69295389D01*
X98361938Y-69437035D01*
X98530720Y-69549812D01*
X98536023Y-69552090D01*
X98536026Y-69552092D01*
X98624707Y-69590192D01*
X98717228Y-69629942D01*
X98790244Y-69646464D01*
X98909579Y-69673467D01*
X98909584Y-69673468D01*
X98915216Y-69674742D01*
X98920987Y-69674969D01*
X98920989Y-69674969D01*
X98980756Y-69677317D01*
X99118053Y-69682712D01*
X99218499Y-69668148D01*
X99313231Y-69654413D01*
X99313236Y-69654412D01*
X99318945Y-69653584D01*
X99324409Y-69651729D01*
X99324414Y-69651728D01*
X99505693Y-69590192D01*
X99505698Y-69590190D01*
X99511165Y-69588334D01*
X99688276Y-69489147D01*
X99750934Y-69437035D01*
X99839913Y-69363031D01*
X99844345Y-69359345D01*
X99974147Y-69203276D01*
X100073334Y-69026165D01*
X100075190Y-69020698D01*
X100075192Y-69020693D01*
X100136728Y-68839414D01*
X100136729Y-68839409D01*
X100138584Y-68833945D01*
X100139412Y-68828236D01*
X100139413Y-68828231D01*
X100167179Y-68636727D01*
X100167712Y-68633053D01*
X100169232Y-68575000D01*
X100150658Y-68372859D01*
X100149090Y-68367299D01*
X100097125Y-68183046D01*
X100097124Y-68183044D01*
X100095557Y-68177487D01*
X100084978Y-68156033D01*
X100008331Y-68000609D01*
X100005776Y-67995428D01*
X99884320Y-67832779D01*
X99735258Y-67694987D01*
X99730375Y-67691906D01*
X99730371Y-67691903D01*
X99568464Y-67589748D01*
X99563581Y-67586667D01*
X99375039Y-67511446D01*
X99369379Y-67510320D01*
X99369375Y-67510319D01*
X99181613Y-67472971D01*
X99181610Y-67472971D01*
X99175946Y-67471844D01*
X99170171Y-67471768D01*
X99170167Y-67471768D01*
X99068793Y-67470441D01*
X98972971Y-67469187D01*
X98967274Y-67470166D01*
X98967273Y-67470166D01*
X98778607Y-67502585D01*
X98772910Y-67503564D01*
X98582463Y-67573824D01*
X98408010Y-67677612D01*
X98403670Y-67681418D01*
X98403666Y-67681421D01*
X98383723Y-67698911D01*
X98255392Y-67811455D01*
X98129720Y-67970869D01*
X98127031Y-67975980D01*
X98127029Y-67975983D01*
X98114073Y-68000609D01*
X98035203Y-68150515D01*
X97975007Y-68344378D01*
X97951148Y-68545964D01*
X90361000Y-68545964D01*
X90361000Y-65778701D01*
X90381002Y-65710580D01*
X90387038Y-65701997D01*
X90395329Y-65691192D01*
X90400355Y-65684642D01*
X90456228Y-65549754D01*
X90461078Y-65512919D01*
X90474207Y-65413188D01*
X90475285Y-65405000D01*
X90456228Y-65260246D01*
X90417241Y-65166123D01*
X90414677Y-65159933D01*
X97955500Y-65159933D01*
X97955501Y-66910066D01*
X97970266Y-66984301D01*
X98026516Y-67068484D01*
X98110699Y-67124734D01*
X98184933Y-67139500D01*
X99059858Y-67139500D01*
X99935066Y-67139499D01*
X99970818Y-67132388D01*
X99997126Y-67127156D01*
X99997128Y-67127155D01*
X100009301Y-67124734D01*
X100019621Y-67117839D01*
X100019622Y-67117838D01*
X100083168Y-67075377D01*
X100093484Y-67068484D01*
X100149734Y-66984301D01*
X100164500Y-66910067D01*
X100164499Y-65159934D01*
X100156319Y-65118807D01*
X100152156Y-65097874D01*
X100152155Y-65097872D01*
X100149734Y-65085699D01*
X100142344Y-65074638D01*
X100102251Y-65014636D01*
X100093484Y-65001516D01*
X100009301Y-64945266D01*
X99935067Y-64930500D01*
X99060142Y-64930500D01*
X98184934Y-64930501D01*
X98153526Y-64936748D01*
X98122874Y-64942844D01*
X98122872Y-64942845D01*
X98110699Y-64945266D01*
X98100379Y-64952161D01*
X98100378Y-64952162D01*
X98088434Y-64960143D01*
X98026516Y-65001516D01*
X97970266Y-65085699D01*
X97955500Y-65159933D01*
X90414677Y-65159933D01*
X90403515Y-65132986D01*
X90403514Y-65132984D01*
X90400355Y-65125358D01*
X90311474Y-65009526D01*
X90304924Y-65004500D01*
X90304921Y-65004497D01*
X90206668Y-64929105D01*
X90164801Y-64871767D01*
X90160579Y-64800896D01*
X90194277Y-64740048D01*
X90220414Y-64713911D01*
X90282726Y-64679885D01*
X90293061Y-64678084D01*
X90306567Y-64676306D01*
X90306568Y-64676306D01*
X90314754Y-64675228D01*
X90449643Y-64619355D01*
X90456196Y-64614327D01*
X90558921Y-64535503D01*
X90558924Y-64535500D01*
X90565474Y-64530474D01*
X90654355Y-64414642D01*
X90710228Y-64279754D01*
X90729285Y-64135000D01*
X90710228Y-63990246D01*
X90654355Y-63855358D01*
X90565474Y-63739526D01*
X90558924Y-63734500D01*
X90558921Y-63734497D01*
X90456196Y-63655673D01*
X90456194Y-63655672D01*
X90449643Y-63650645D01*
X90314754Y-63594772D01*
X90170000Y-63575715D01*
X90161812Y-63576793D01*
X90033432Y-63593694D01*
X90033430Y-63593695D01*
X90025246Y-63594772D01*
X89977430Y-63614578D01*
X89897986Y-63647485D01*
X89897984Y-63647486D01*
X89890358Y-63650645D01*
X89774526Y-63739526D01*
X89685645Y-63855358D01*
X89629772Y-63990246D01*
X89627307Y-64008969D01*
X89626916Y-64011939D01*
X89598192Y-64076866D01*
X89591089Y-64084586D01*
X88609302Y-65066373D01*
X88598213Y-65076228D01*
X88571945Y-65096936D01*
X88566590Y-65104683D01*
X88566589Y-65104685D01*
X88539016Y-65144581D01*
X88536713Y-65147804D01*
X88502282Y-65194419D01*
X88499918Y-65201150D01*
X88495864Y-65207016D01*
X88479030Y-65260246D01*
X88478406Y-65262219D01*
X88477153Y-65265975D01*
X88461065Y-65311786D01*
X88461064Y-65311791D01*
X88457945Y-65320673D01*
X88457665Y-65327802D01*
X88455515Y-65334600D01*
X88455000Y-65341143D01*
X88455000Y-65393159D01*
X88454903Y-65398105D01*
X88452692Y-65454384D01*
X88454557Y-65461419D01*
X88455000Y-65469465D01*
X88455000Y-72915485D01*
X88434998Y-72983606D01*
X88418095Y-73004580D01*
X87325586Y-74097089D01*
X87263274Y-74131115D01*
X87252939Y-74132916D01*
X87249969Y-74133307D01*
X87231246Y-74135772D01*
X87223619Y-74138931D01*
X87223620Y-74138931D01*
X87103986Y-74188485D01*
X87103984Y-74188486D01*
X87096358Y-74191645D01*
X86980526Y-74280526D01*
X86891645Y-74396358D01*
X86835772Y-74531246D01*
X86834695Y-74539430D01*
X86834694Y-74539432D01*
X86819841Y-74652255D01*
X86816715Y-74676000D01*
X86817793Y-74684188D01*
X86828022Y-74761883D01*
X86835772Y-74820754D01*
X86891645Y-74955642D01*
X86980526Y-75071474D01*
X86987076Y-75076500D01*
X86987079Y-75076503D01*
X87058682Y-75131446D01*
X87096357Y-75160355D01*
X87231246Y-75216228D01*
X87376000Y-75235285D01*
X87384188Y-75234207D01*
X87512566Y-75217306D01*
X87520754Y-75216228D01*
X87655643Y-75160355D01*
X87693318Y-75131446D01*
X87764921Y-75076503D01*
X87764924Y-75076500D01*
X87771474Y-75071474D01*
X87860355Y-74955642D01*
X87916228Y-74820754D01*
X87919084Y-74799061D01*
X87947808Y-74734134D01*
X87954911Y-74726414D01*
X89190698Y-73490627D01*
X89201787Y-73480772D01*
X89228055Y-73460064D01*
X89241348Y-73440830D01*
X89296532Y-73396165D01*
X89367106Y-73388424D01*
X89430661Y-73420067D01*
X89467019Y-73481048D01*
X89471000Y-73512470D01*
X89471000Y-76471485D01*
X89450998Y-76539606D01*
X89434095Y-76560580D01*
X84912586Y-81082089D01*
X84850274Y-81116115D01*
X84839939Y-81117916D01*
X84836969Y-81118307D01*
X84818246Y-81120772D01*
X84801714Y-81127620D01*
X84690986Y-81173485D01*
X84690984Y-81173486D01*
X84683358Y-81176645D01*
X84614364Y-81229586D01*
X84586031Y-81251327D01*
X84567526Y-81265526D01*
X84478645Y-81381358D01*
X84475486Y-81388984D01*
X84475485Y-81388986D01*
X84459565Y-81427420D01*
X84422772Y-81516246D01*
X84403715Y-81661000D01*
X76391000Y-81661000D01*
X76391000Y-81313887D01*
X76391873Y-81299077D01*
X76394697Y-81275216D01*
X76395804Y-81265864D01*
X76385393Y-81208859D01*
X76384745Y-81204966D01*
X76379865Y-81172503D01*
X76376132Y-81147674D01*
X76373044Y-81141243D01*
X76371763Y-81134229D01*
X76345056Y-81082815D01*
X76343287Y-81079275D01*
X76322288Y-81035544D01*
X76322287Y-81035543D01*
X76318208Y-81027048D01*
X76313366Y-81021810D01*
X76310079Y-81015482D01*
X76305816Y-81010491D01*
X76269037Y-80973712D01*
X76265608Y-80970146D01*
X76233770Y-80935704D01*
X76227375Y-80928786D01*
X76221081Y-80925130D01*
X76215078Y-80919753D01*
X76067325Y-80772000D01*
X78180715Y-80772000D01*
X78181793Y-80780188D01*
X78196392Y-80891077D01*
X78199772Y-80916754D01*
X78219578Y-80964570D01*
X78245458Y-81027048D01*
X78255645Y-81051642D01*
X78260672Y-81058193D01*
X78332032Y-81151191D01*
X78344526Y-81167474D01*
X78351076Y-81172500D01*
X78351079Y-81172503D01*
X78425471Y-81229586D01*
X78460357Y-81256355D01*
X78595246Y-81312228D01*
X78603434Y-81313306D01*
X78667623Y-81321757D01*
X78740000Y-81331285D01*
X78748188Y-81330207D01*
X78876566Y-81313306D01*
X78884754Y-81312228D01*
X79019643Y-81256355D01*
X79054529Y-81229586D01*
X79128921Y-81172503D01*
X79128924Y-81172500D01*
X79135474Y-81167474D01*
X79147969Y-81151191D01*
X79219328Y-81058193D01*
X79224355Y-81051642D01*
X79234543Y-81027048D01*
X79260422Y-80964570D01*
X79280228Y-80916754D01*
X79283084Y-80895061D01*
X79311808Y-80830134D01*
X79318911Y-80822414D01*
X84023199Y-76118126D01*
X84034288Y-76108271D01*
X84053159Y-76093394D01*
X84060556Y-76087563D01*
X84077235Y-76063431D01*
X84093489Y-76039912D01*
X84095791Y-76036690D01*
X84130219Y-75990079D01*
X84132582Y-75983350D01*
X84136637Y-75977483D01*
X84154098Y-75922271D01*
X84155349Y-75918521D01*
X84171436Y-75872713D01*
X84171437Y-75872705D01*
X84174556Y-75863825D01*
X84174836Y-75856697D01*
X84176986Y-75849899D01*
X84177501Y-75843356D01*
X84177501Y-75791340D01*
X84177598Y-75786394D01*
X84178782Y-75756254D01*
X84179809Y-75730115D01*
X84177944Y-75723080D01*
X84177501Y-75715034D01*
X84177501Y-65602014D01*
X84197503Y-65533893D01*
X84214406Y-65512919D01*
X85648414Y-64078911D01*
X85710726Y-64044885D01*
X85721061Y-64043084D01*
X85734567Y-64041306D01*
X85734568Y-64041306D01*
X85742754Y-64040228D01*
X85877643Y-63984355D01*
X85884196Y-63979327D01*
X85986921Y-63900503D01*
X85986924Y-63900500D01*
X85993474Y-63895474D01*
X86082355Y-63779642D01*
X86096261Y-63746072D01*
X86133705Y-63655673D01*
X86138228Y-63644754D01*
X86157285Y-63500000D01*
X86138228Y-63355246D01*
X86082355Y-63220358D01*
X85993474Y-63104526D01*
X85977100Y-63091962D01*
X85935233Y-63034626D01*
X85931011Y-62963755D01*
X85965774Y-62901851D01*
X85977095Y-62892042D01*
X85993474Y-62879474D01*
X86082355Y-62763642D01*
X86138228Y-62628754D01*
X86157285Y-62484000D01*
X86138228Y-62339246D01*
X86082355Y-62204358D01*
X85993474Y-62088526D01*
X85986924Y-62083500D01*
X85986921Y-62083497D01*
X85884196Y-62004673D01*
X85884194Y-62004672D01*
X85877643Y-61999645D01*
X85742754Y-61943772D01*
X85598000Y-61924715D01*
X85589812Y-61925793D01*
X85461432Y-61942694D01*
X85461430Y-61942695D01*
X85453246Y-61943772D01*
X85405430Y-61963578D01*
X85325986Y-61996485D01*
X85325984Y-61996486D01*
X85318358Y-61999645D01*
X85202526Y-62088526D01*
X85113645Y-62204358D01*
X85057772Y-62339246D01*
X85055307Y-62357969D01*
X85054916Y-62360939D01*
X85026192Y-62425866D01*
X85019089Y-62433586D01*
X82767302Y-64685373D01*
X82756213Y-64695228D01*
X82729945Y-64715936D01*
X82724590Y-64723683D01*
X82724589Y-64723685D01*
X82697016Y-64763581D01*
X82694713Y-64766804D01*
X82660282Y-64813419D01*
X82657918Y-64820150D01*
X82653864Y-64826016D01*
X82651024Y-64834997D01*
X82636406Y-64881219D01*
X82635153Y-64884975D01*
X82619065Y-64930786D01*
X82619064Y-64930791D01*
X82615945Y-64939673D01*
X82615665Y-64946802D01*
X82613515Y-64953600D01*
X82613000Y-64960143D01*
X82613000Y-65012159D01*
X82612903Y-65017105D01*
X82610692Y-65073384D01*
X82612557Y-65080419D01*
X82613000Y-65088465D01*
X82613000Y-72661485D01*
X82592998Y-72729606D01*
X82576095Y-72750580D01*
X81229586Y-74097089D01*
X81167274Y-74131115D01*
X81156939Y-74132916D01*
X81153969Y-74133307D01*
X81135246Y-74135772D01*
X81127619Y-74138931D01*
X81127620Y-74138931D01*
X81007986Y-74188485D01*
X81007984Y-74188486D01*
X81000358Y-74191645D01*
X80884526Y-74280526D01*
X80795645Y-74396358D01*
X80739772Y-74531246D01*
X80738695Y-74539430D01*
X80738694Y-74539432D01*
X80723841Y-74652255D01*
X80720715Y-74676000D01*
X80721793Y-74684188D01*
X80732022Y-74761883D01*
X80739772Y-74820754D01*
X80795645Y-74955642D01*
X80884526Y-75071474D01*
X80891076Y-75076500D01*
X80891079Y-75076503D01*
X80962682Y-75131446D01*
X81000357Y-75160355D01*
X81135246Y-75216228D01*
X81280000Y-75235285D01*
X81288188Y-75234207D01*
X81416566Y-75217306D01*
X81424754Y-75216228D01*
X81559643Y-75160355D01*
X81597318Y-75131446D01*
X81668921Y-75076503D01*
X81668924Y-75076500D01*
X81675474Y-75071474D01*
X81764355Y-74955642D01*
X81820228Y-74820754D01*
X81823084Y-74799061D01*
X81851808Y-74734134D01*
X81858911Y-74726414D01*
X83072406Y-73512919D01*
X83134718Y-73478893D01*
X83205533Y-73483958D01*
X83262369Y-73526505D01*
X83287180Y-73593025D01*
X83287501Y-73602014D01*
X83287501Y-75542983D01*
X83267499Y-75611104D01*
X83250596Y-75632078D01*
X78689586Y-80193089D01*
X78627274Y-80227115D01*
X78616939Y-80228916D01*
X78613969Y-80229307D01*
X78595246Y-80231772D01*
X78587619Y-80234931D01*
X78587620Y-80234931D01*
X78467986Y-80284485D01*
X78467984Y-80284486D01*
X78460358Y-80287645D01*
X78344526Y-80376526D01*
X78255645Y-80492358D01*
X78199772Y-80627246D01*
X78180715Y-80772000D01*
X76067325Y-80772000D01*
X61284911Y-65989586D01*
X61250885Y-65927274D01*
X61249084Y-65916939D01*
X61248693Y-65913969D01*
X61246228Y-65895246D01*
X61190355Y-65760358D01*
X61101474Y-65644526D01*
X61094924Y-65639500D01*
X61094921Y-65639497D01*
X60992196Y-65560673D01*
X60992194Y-65560672D01*
X60985643Y-65555645D01*
X60850754Y-65499772D01*
X60706000Y-65480715D01*
X60697812Y-65481793D01*
X60569432Y-65498694D01*
X60569430Y-65498695D01*
X60561246Y-65499772D01*
X60529507Y-65512919D01*
X60433986Y-65552485D01*
X60433984Y-65552486D01*
X60426358Y-65555645D01*
X60310526Y-65644526D01*
X60221645Y-65760358D01*
X60165772Y-65895246D01*
X60146715Y-66040000D01*
X60165772Y-66184754D01*
X60221645Y-66319642D01*
X60310526Y-66435474D01*
X60317076Y-66440500D01*
X60317079Y-66440503D01*
X60419804Y-66519327D01*
X60426357Y-66524355D01*
X60561246Y-66580228D01*
X60569432Y-66581306D01*
X60569433Y-66581306D01*
X60582939Y-66583084D01*
X60647866Y-66611808D01*
X60655586Y-66618911D01*
X75464095Y-81427420D01*
X75498121Y-81489732D01*
X75501000Y-81516515D01*
X75501000Y-84981485D01*
X75480998Y-85049606D01*
X75427342Y-85096099D01*
X75357068Y-85106203D01*
X75292488Y-85076709D01*
X75285905Y-85070580D01*
X61284911Y-71069586D01*
X61250885Y-71007274D01*
X61249084Y-70996939D01*
X61248693Y-70993969D01*
X61246228Y-70975246D01*
X61190355Y-70840358D01*
X61101474Y-70724526D01*
X61094924Y-70719500D01*
X61094921Y-70719497D01*
X60992196Y-70640673D01*
X60992194Y-70640672D01*
X60985643Y-70635645D01*
X60850754Y-70579772D01*
X60706000Y-70560715D01*
X60697812Y-70561793D01*
X60569432Y-70578694D01*
X60569430Y-70578695D01*
X60561246Y-70579772D01*
X60513430Y-70599578D01*
X60433986Y-70632485D01*
X60433984Y-70632486D01*
X60426358Y-70635645D01*
X60310526Y-70724526D01*
X60221645Y-70840358D01*
X60165772Y-70975246D01*
X60146715Y-71120000D01*
X60165772Y-71264754D01*
X60221645Y-71399642D01*
X60310526Y-71515474D01*
X60317076Y-71520500D01*
X60317079Y-71520503D01*
X60376587Y-71566165D01*
X60426357Y-71604355D01*
X60561246Y-71660228D01*
X60569432Y-71661306D01*
X60569433Y-71661306D01*
X60582939Y-71663084D01*
X60647866Y-71691808D01*
X60655586Y-71698911D01*
X74702095Y-85745420D01*
X74736121Y-85807732D01*
X74739000Y-85834515D01*
X74739000Y-89299485D01*
X74718998Y-89367606D01*
X74665342Y-89414099D01*
X74595068Y-89424203D01*
X74530488Y-89394709D01*
X74523905Y-89388580D01*
X61284911Y-76149586D01*
X61250885Y-76087274D01*
X61249084Y-76076939D01*
X61248693Y-76073969D01*
X61246228Y-76055246D01*
X61217124Y-75984983D01*
X61193515Y-75927986D01*
X61193514Y-75927984D01*
X61190355Y-75920358D01*
X61124963Y-75835137D01*
X61106501Y-75811077D01*
X61106500Y-75811076D01*
X61101474Y-75804526D01*
X61094924Y-75799500D01*
X61094921Y-75799497D01*
X60992196Y-75720673D01*
X60992194Y-75720672D01*
X60985643Y-75715645D01*
X60850754Y-75659772D01*
X60706000Y-75640715D01*
X60697812Y-75641793D01*
X60569432Y-75658694D01*
X60569430Y-75658695D01*
X60561246Y-75659772D01*
X60513430Y-75679578D01*
X60433986Y-75712485D01*
X60433984Y-75712486D01*
X60426358Y-75715645D01*
X60350856Y-75773580D01*
X60320530Y-75796850D01*
X60310526Y-75804526D01*
X60305503Y-75811072D01*
X60296510Y-75822792D01*
X60221645Y-75920358D01*
X60218486Y-75927984D01*
X60218485Y-75927986D01*
X60194876Y-75984983D01*
X60165772Y-76055246D01*
X60164695Y-76063430D01*
X60164694Y-76063432D01*
X60161555Y-76087274D01*
X60146715Y-76200000D01*
X51300000Y-76200000D01*
X51300000Y-62484000D01*
X81228715Y-62484000D01*
X81247772Y-62628754D01*
X81303645Y-62763642D01*
X81392526Y-62879474D01*
X81399076Y-62884500D01*
X81399079Y-62884503D01*
X81501804Y-62963327D01*
X81508357Y-62968355D01*
X81643246Y-63024228D01*
X81788000Y-63043285D01*
X81796188Y-63042207D01*
X81924566Y-63025306D01*
X81932754Y-63024228D01*
X82067643Y-62968355D01*
X82074196Y-62963327D01*
X82176921Y-62884503D01*
X82176924Y-62884500D01*
X82183474Y-62879474D01*
X82272355Y-62763642D01*
X82328228Y-62628754D01*
X82347285Y-62484000D01*
X82328228Y-62339246D01*
X82325068Y-62331617D01*
X82280150Y-62223174D01*
X82272561Y-62152584D01*
X82307464Y-62085861D01*
X83479958Y-60913367D01*
X98225906Y-60913367D01*
X98235349Y-61093564D01*
X98237162Y-61100144D01*
X98237162Y-61100147D01*
X98279363Y-61253351D01*
X98283268Y-61267530D01*
X98367424Y-61427148D01*
X98371826Y-61432357D01*
X98371828Y-61432360D01*
X98479487Y-61559757D01*
X98479491Y-61559761D01*
X98483894Y-61564971D01*
X98489318Y-61569118D01*
X98489319Y-61569119D01*
X98621821Y-61670425D01*
X98621825Y-61670428D01*
X98627242Y-61674569D01*
X98633422Y-61677451D01*
X98633424Y-61677452D01*
X98701066Y-61708994D01*
X98790780Y-61750828D01*
X98846138Y-61763202D01*
X98961835Y-61789064D01*
X98961841Y-61789065D01*
X98966879Y-61790191D01*
X98972406Y-61790500D01*
X99105077Y-61790500D01*
X99239389Y-61775909D01*
X99410409Y-61718355D01*
X99565080Y-61625419D01*
X99570042Y-61620727D01*
X99691229Y-61506126D01*
X99691231Y-61506124D01*
X99696187Y-61501437D01*
X99797612Y-61352195D01*
X99829059Y-61273572D01*
X99862089Y-61190992D01*
X99862090Y-61190987D01*
X99864623Y-61184655D01*
X99894094Y-61006633D01*
X99884651Y-60826436D01*
X99857815Y-60729008D01*
X99838545Y-60659052D01*
X99836732Y-60652470D01*
X99752576Y-60492852D01*
X99748174Y-60487643D01*
X99748172Y-60487640D01*
X99640513Y-60360243D01*
X99640509Y-60360239D01*
X99636106Y-60355029D01*
X99630681Y-60350881D01*
X99498179Y-60249575D01*
X99498175Y-60249572D01*
X99492758Y-60245431D01*
X99486578Y-60242549D01*
X99486576Y-60242548D01*
X99406399Y-60205161D01*
X99329220Y-60169172D01*
X99213718Y-60143354D01*
X99158165Y-60130936D01*
X99158159Y-60130935D01*
X99153121Y-60129809D01*
X99147594Y-60129500D01*
X99014923Y-60129500D01*
X98880611Y-60144091D01*
X98709591Y-60201645D01*
X98554920Y-60294581D01*
X98549960Y-60299272D01*
X98549958Y-60299273D01*
X98485485Y-60360243D01*
X98423813Y-60418563D01*
X98322388Y-60567805D01*
X98319855Y-60574139D01*
X98319853Y-60574142D01*
X98257911Y-60729008D01*
X98257910Y-60729013D01*
X98255377Y-60735345D01*
X98225906Y-60913367D01*
X83479958Y-60913367D01*
X88440537Y-55952788D01*
X88502849Y-55918762D01*
X88557440Y-55918990D01*
X88749579Y-55962467D01*
X88749584Y-55962468D01*
X88755216Y-55963742D01*
X88760987Y-55963969D01*
X88760989Y-55963969D01*
X88820756Y-55966317D01*
X88958053Y-55971712D01*
X89065348Y-55956155D01*
X89153231Y-55943413D01*
X89153236Y-55943412D01*
X89158945Y-55942584D01*
X89164409Y-55940729D01*
X89164414Y-55940728D01*
X89345693Y-55879192D01*
X89345698Y-55879190D01*
X89351165Y-55877334D01*
X89528276Y-55778147D01*
X89567969Y-55745135D01*
X89679913Y-55652031D01*
X89684345Y-55648345D01*
X89814147Y-55492276D01*
X89913334Y-55315165D01*
X89915190Y-55309698D01*
X89915192Y-55309693D01*
X89976728Y-55128414D01*
X89976729Y-55128409D01*
X89978584Y-55122945D01*
X89979412Y-55117236D01*
X89979413Y-55117231D01*
X90007179Y-54925727D01*
X90007712Y-54922053D01*
X90009232Y-54864000D01*
X90006564Y-54834964D01*
X90331148Y-54834964D01*
X90344424Y-55037522D01*
X90345845Y-55043118D01*
X90345846Y-55043123D01*
X90386074Y-55201518D01*
X90394392Y-55234269D01*
X90396809Y-55239512D01*
X90434010Y-55320208D01*
X90479377Y-55418616D01*
X90495804Y-55441860D01*
X90525615Y-55484041D01*
X90596533Y-55584389D01*
X90741938Y-55726035D01*
X90746742Y-55729245D01*
X90752178Y-55732877D01*
X90910720Y-55838812D01*
X90916023Y-55841090D01*
X90916026Y-55841092D01*
X91091921Y-55916662D01*
X91097228Y-55918942D01*
X91140366Y-55928703D01*
X91289579Y-55962467D01*
X91289584Y-55962468D01*
X91295216Y-55963742D01*
X91300987Y-55963969D01*
X91300989Y-55963969D01*
X91360756Y-55966317D01*
X91498053Y-55971712D01*
X91605348Y-55956155D01*
X91693231Y-55943413D01*
X91693236Y-55943412D01*
X91698945Y-55942584D01*
X91704409Y-55940729D01*
X91704414Y-55940728D01*
X91885693Y-55879192D01*
X91885698Y-55879190D01*
X91891165Y-55877334D01*
X92068276Y-55778147D01*
X92107969Y-55745135D01*
X92219913Y-55652031D01*
X92224345Y-55648345D01*
X92354147Y-55492276D01*
X92453334Y-55315165D01*
X92455190Y-55309698D01*
X92455192Y-55309693D01*
X92516728Y-55128414D01*
X92516729Y-55128409D01*
X92518584Y-55122945D01*
X92519412Y-55117236D01*
X92519413Y-55117231D01*
X92547179Y-54925727D01*
X92547712Y-54922053D01*
X92549232Y-54864000D01*
X92546564Y-54834964D01*
X95411148Y-54834964D01*
X95424424Y-55037522D01*
X95425845Y-55043118D01*
X95425846Y-55043123D01*
X95466074Y-55201518D01*
X95474392Y-55234269D01*
X95476809Y-55239512D01*
X95514010Y-55320208D01*
X95559377Y-55418616D01*
X95575804Y-55441860D01*
X95605615Y-55484041D01*
X95676533Y-55584389D01*
X95821938Y-55726035D01*
X95826742Y-55729245D01*
X95832178Y-55732877D01*
X95990720Y-55838812D01*
X95996023Y-55841090D01*
X95996026Y-55841092D01*
X96171921Y-55916662D01*
X96177228Y-55918942D01*
X96220366Y-55928703D01*
X96369579Y-55962467D01*
X96369584Y-55962468D01*
X96375216Y-55963742D01*
X96380987Y-55963969D01*
X96380989Y-55963969D01*
X96440756Y-55966317D01*
X96578053Y-55971712D01*
X96685348Y-55956155D01*
X96773231Y-55943413D01*
X96773236Y-55943412D01*
X96778945Y-55942584D01*
X96784409Y-55940729D01*
X96784414Y-55940728D01*
X96965693Y-55879192D01*
X96965698Y-55879190D01*
X96971165Y-55877334D01*
X97148276Y-55778147D01*
X97187969Y-55745135D01*
X97299913Y-55652031D01*
X97304345Y-55648345D01*
X97434147Y-55492276D01*
X97533334Y-55315165D01*
X97535190Y-55309698D01*
X97535192Y-55309693D01*
X97596728Y-55128414D01*
X97596729Y-55128409D01*
X97598584Y-55122945D01*
X97599412Y-55117236D01*
X97599413Y-55117231D01*
X97627179Y-54925727D01*
X97627712Y-54922053D01*
X97629232Y-54864000D01*
X97610658Y-54661859D01*
X97609090Y-54656299D01*
X97557125Y-54472046D01*
X97557124Y-54472044D01*
X97555557Y-54466487D01*
X97544978Y-54445033D01*
X97468331Y-54289609D01*
X97465776Y-54284428D01*
X97344320Y-54121779D01*
X97267130Y-54050425D01*
X97199503Y-53987911D01*
X97195258Y-53983987D01*
X97190375Y-53980906D01*
X97190371Y-53980903D01*
X97028464Y-53878748D01*
X97023581Y-53875667D01*
X96835039Y-53800446D01*
X96829379Y-53799320D01*
X96829375Y-53799319D01*
X96641613Y-53761971D01*
X96641610Y-53761971D01*
X96635946Y-53760844D01*
X96630171Y-53760768D01*
X96630167Y-53760768D01*
X96528793Y-53759441D01*
X96432971Y-53758187D01*
X96427274Y-53759166D01*
X96427273Y-53759166D01*
X96339397Y-53774266D01*
X96232910Y-53792564D01*
X96042463Y-53862824D01*
X95868010Y-53966612D01*
X95863670Y-53970418D01*
X95863666Y-53970421D01*
X95764427Y-54057452D01*
X95715392Y-54100455D01*
X95589720Y-54259869D01*
X95587031Y-54264980D01*
X95587029Y-54264983D01*
X95561478Y-54313548D01*
X95495203Y-54439515D01*
X95435007Y-54633378D01*
X95411148Y-54834964D01*
X92546564Y-54834964D01*
X92530658Y-54661859D01*
X92529090Y-54656299D01*
X92477125Y-54472046D01*
X92477124Y-54472044D01*
X92475557Y-54466487D01*
X92464978Y-54445033D01*
X92388331Y-54289609D01*
X92385776Y-54284428D01*
X92264320Y-54121779D01*
X92187130Y-54050425D01*
X92119503Y-53987911D01*
X92115258Y-53983987D01*
X92110375Y-53980906D01*
X92110371Y-53980903D01*
X91948464Y-53878748D01*
X91943581Y-53875667D01*
X91755039Y-53800446D01*
X91749379Y-53799320D01*
X91749375Y-53799319D01*
X91561613Y-53761971D01*
X91561610Y-53761971D01*
X91555946Y-53760844D01*
X91550171Y-53760768D01*
X91550167Y-53760768D01*
X91448793Y-53759441D01*
X91352971Y-53758187D01*
X91347274Y-53759166D01*
X91347273Y-53759166D01*
X91259397Y-53774266D01*
X91152910Y-53792564D01*
X90962463Y-53862824D01*
X90788010Y-53966612D01*
X90783670Y-53970418D01*
X90783666Y-53970421D01*
X90684427Y-54057452D01*
X90635392Y-54100455D01*
X90509720Y-54259869D01*
X90507031Y-54264980D01*
X90507029Y-54264983D01*
X90481478Y-54313548D01*
X90415203Y-54439515D01*
X90355007Y-54633378D01*
X90331148Y-54834964D01*
X90006564Y-54834964D01*
X89990658Y-54661859D01*
X89989090Y-54656299D01*
X89937125Y-54472046D01*
X89937124Y-54472044D01*
X89935557Y-54466487D01*
X89924978Y-54445033D01*
X89848331Y-54289609D01*
X89845776Y-54284428D01*
X89724320Y-54121779D01*
X89647130Y-54050425D01*
X89579503Y-53987911D01*
X89575258Y-53983987D01*
X89570375Y-53980906D01*
X89570371Y-53980903D01*
X89408464Y-53878748D01*
X89403581Y-53875667D01*
X89215039Y-53800446D01*
X89209379Y-53799320D01*
X89209375Y-53799319D01*
X89021613Y-53761971D01*
X89021610Y-53761971D01*
X89015946Y-53760844D01*
X89010171Y-53760768D01*
X89010167Y-53760768D01*
X88908793Y-53759441D01*
X88812971Y-53758187D01*
X88807274Y-53759166D01*
X88807273Y-53759166D01*
X88719397Y-53774266D01*
X88612910Y-53792564D01*
X88422463Y-53862824D01*
X88248010Y-53966612D01*
X88243670Y-53970418D01*
X88243666Y-53970421D01*
X88144427Y-54057452D01*
X88095392Y-54100455D01*
X87969720Y-54259869D01*
X87967031Y-54264980D01*
X87967029Y-54264983D01*
X87941478Y-54313548D01*
X87875203Y-54439515D01*
X87815007Y-54633378D01*
X87791148Y-54834964D01*
X87804424Y-55037522D01*
X87805845Y-55043118D01*
X87805846Y-55043123D01*
X87846074Y-55201518D01*
X87843456Y-55272467D01*
X87813046Y-55321629D01*
X87679595Y-55455080D01*
X87617283Y-55489106D01*
X87546468Y-55484041D01*
X87489632Y-55441494D01*
X87464821Y-55374974D01*
X87464500Y-55365985D01*
X87464499Y-53995123D01*
X87464499Y-53988934D01*
X87454718Y-53939757D01*
X87452156Y-53926874D01*
X87452155Y-53926872D01*
X87449734Y-53914699D01*
X87423654Y-53875667D01*
X87400377Y-53840832D01*
X87393484Y-53830516D01*
X87309301Y-53774266D01*
X87235067Y-53759500D01*
X86360142Y-53759500D01*
X85484934Y-53759501D01*
X85449182Y-53766612D01*
X85422874Y-53771844D01*
X85422872Y-53771845D01*
X85410699Y-53774266D01*
X85400379Y-53781161D01*
X85400378Y-53781162D01*
X85361488Y-53807148D01*
X85326516Y-53830516D01*
X85270266Y-53914699D01*
X85255500Y-53988933D01*
X85255501Y-55739066D01*
X85256777Y-55745480D01*
X85265942Y-55791559D01*
X85270266Y-55813301D01*
X85277161Y-55823620D01*
X85277162Y-55823622D01*
X85314833Y-55880000D01*
X85326516Y-55897484D01*
X85410699Y-55953734D01*
X85484933Y-55968500D01*
X85518447Y-55968500D01*
X86861987Y-55968499D01*
X86930107Y-55988501D01*
X86976600Y-56042157D01*
X86986704Y-56112431D01*
X86957211Y-56177011D01*
X86951081Y-56183594D01*
X81497302Y-61637373D01*
X81486213Y-61647228D01*
X81459945Y-61667936D01*
X81454590Y-61675683D01*
X81454589Y-61675685D01*
X81427016Y-61715581D01*
X81424713Y-61718804D01*
X81390282Y-61765419D01*
X81387918Y-61772150D01*
X81383864Y-61778016D01*
X81381024Y-61786997D01*
X81366406Y-61833219D01*
X81365153Y-61836975D01*
X81349065Y-61882786D01*
X81349064Y-61882791D01*
X81345945Y-61891673D01*
X81345665Y-61898802D01*
X81343515Y-61905600D01*
X81343000Y-61912143D01*
X81343000Y-61964159D01*
X81342903Y-61969105D01*
X81340692Y-62025384D01*
X81342557Y-62032419D01*
X81343000Y-62040465D01*
X81343000Y-62110299D01*
X81322998Y-62178420D01*
X81316962Y-62187003D01*
X81303645Y-62204358D01*
X81247772Y-62339246D01*
X81228715Y-62484000D01*
X51300000Y-62484000D01*
X51300000Y-55928703D01*
X51301500Y-55909319D01*
X51303723Y-55895043D01*
X51303723Y-55895041D01*
X51305104Y-55886171D01*
X51302498Y-55866240D01*
X51301554Y-55844405D01*
X51301799Y-55838812D01*
X51317188Y-55486324D01*
X51318146Y-55475373D01*
X51368864Y-55090141D01*
X51370773Y-55079317D01*
X51424944Y-54834964D01*
X62391148Y-54834964D01*
X62404424Y-55037522D01*
X62405845Y-55043118D01*
X62405846Y-55043123D01*
X62446074Y-55201518D01*
X62454392Y-55234269D01*
X62456809Y-55239512D01*
X62494010Y-55320208D01*
X62539377Y-55418616D01*
X62555804Y-55441860D01*
X62585615Y-55484041D01*
X62656533Y-55584389D01*
X62801938Y-55726035D01*
X62806742Y-55729245D01*
X62812178Y-55732877D01*
X62970720Y-55838812D01*
X62976023Y-55841090D01*
X62976026Y-55841092D01*
X63151921Y-55916662D01*
X63157228Y-55918942D01*
X63200366Y-55928703D01*
X63349579Y-55962467D01*
X63349584Y-55962468D01*
X63355216Y-55963742D01*
X63360987Y-55963969D01*
X63360989Y-55963969D01*
X63420756Y-55966317D01*
X63558053Y-55971712D01*
X63682045Y-55953734D01*
X63753223Y-55943414D01*
X63753227Y-55943413D01*
X63758945Y-55942584D01*
X63826836Y-55919538D01*
X63897768Y-55916581D01*
X63956431Y-55949756D01*
X65955373Y-57948698D01*
X65965228Y-57959787D01*
X65985936Y-57986055D01*
X65993683Y-57991409D01*
X65993685Y-57991411D01*
X66033587Y-58018988D01*
X66036799Y-58021283D01*
X66083420Y-58055718D01*
X66090149Y-58058081D01*
X66096016Y-58062136D01*
X66151297Y-58079619D01*
X66154962Y-58080842D01*
X66209673Y-58100055D01*
X66216802Y-58100335D01*
X66223600Y-58102485D01*
X66230143Y-58103000D01*
X66282159Y-58103000D01*
X66287105Y-58103097D01*
X66343384Y-58105308D01*
X66350419Y-58103443D01*
X66358465Y-58103000D01*
X66936298Y-58103000D01*
X67004419Y-58123002D01*
X67013002Y-58129038D01*
X67030357Y-58142355D01*
X67165246Y-58198228D01*
X67310000Y-58217285D01*
X67318188Y-58216207D01*
X67446566Y-58199306D01*
X67454754Y-58198228D01*
X67589643Y-58142355D01*
X67606998Y-58129038D01*
X67698921Y-58058503D01*
X67698924Y-58058500D01*
X67705474Y-58053474D01*
X67794355Y-57937642D01*
X67850228Y-57802754D01*
X67869285Y-57658000D01*
X67850228Y-57513246D01*
X67794355Y-57378358D01*
X67705474Y-57262526D01*
X67698924Y-57257500D01*
X67698921Y-57257497D01*
X67596196Y-57178673D01*
X67596193Y-57178671D01*
X67589643Y-57173645D01*
X67454754Y-57117772D01*
X67310000Y-57098715D01*
X67301812Y-57099793D01*
X67173432Y-57116694D01*
X67173430Y-57116695D01*
X67165246Y-57117772D01*
X67030358Y-57173645D01*
X67023808Y-57178671D01*
X67013003Y-57186962D01*
X66946783Y-57212563D01*
X66936299Y-57213000D01*
X66530515Y-57213000D01*
X66462394Y-57192998D01*
X66441420Y-57176095D01*
X65190011Y-55924686D01*
X65155985Y-55862374D01*
X65161050Y-55791559D01*
X65203597Y-55734723D01*
X65270117Y-55709912D01*
X65339491Y-55725003D01*
X65349108Y-55730826D01*
X65370523Y-55745135D01*
X65510720Y-55838812D01*
X65516023Y-55841090D01*
X65516026Y-55841092D01*
X65691921Y-55916662D01*
X65697228Y-55918942D01*
X65740366Y-55928703D01*
X65889579Y-55962467D01*
X65889584Y-55962468D01*
X65895216Y-55963742D01*
X65900987Y-55963969D01*
X65900989Y-55963969D01*
X65960756Y-55966317D01*
X66098053Y-55971712D01*
X66205348Y-55956155D01*
X66293231Y-55943413D01*
X66293236Y-55943412D01*
X66298945Y-55942584D01*
X66304409Y-55940729D01*
X66304414Y-55940728D01*
X66485693Y-55879192D01*
X66485698Y-55879190D01*
X66491165Y-55877334D01*
X66668276Y-55778147D01*
X66707969Y-55745135D01*
X66819913Y-55652031D01*
X66824345Y-55648345D01*
X66954147Y-55492276D01*
X67053334Y-55315165D01*
X67055190Y-55309698D01*
X67055192Y-55309693D01*
X67116728Y-55128414D01*
X67116729Y-55128409D01*
X67118584Y-55122945D01*
X67119412Y-55117236D01*
X67119413Y-55117231D01*
X67147179Y-54925727D01*
X67147712Y-54922053D01*
X67149232Y-54864000D01*
X67146564Y-54834964D01*
X70011148Y-54834964D01*
X70024424Y-55037522D01*
X70025845Y-55043118D01*
X70025846Y-55043123D01*
X70066074Y-55201518D01*
X70074392Y-55234269D01*
X70076809Y-55239512D01*
X70114010Y-55320208D01*
X70159377Y-55418616D01*
X70175804Y-55441860D01*
X70205615Y-55484041D01*
X70276533Y-55584389D01*
X70421938Y-55726035D01*
X70426742Y-55729245D01*
X70432178Y-55732877D01*
X70590720Y-55838812D01*
X70596023Y-55841090D01*
X70596026Y-55841092D01*
X70771921Y-55916662D01*
X70777228Y-55918942D01*
X70820366Y-55928703D01*
X70969579Y-55962467D01*
X70969584Y-55962468D01*
X70975216Y-55963742D01*
X70980987Y-55963969D01*
X70980989Y-55963969D01*
X71040756Y-55966317D01*
X71178053Y-55971712D01*
X71285348Y-55956155D01*
X71373231Y-55943413D01*
X71373236Y-55943412D01*
X71378945Y-55942584D01*
X71384409Y-55940729D01*
X71384414Y-55940728D01*
X71565693Y-55879192D01*
X71565698Y-55879190D01*
X71571165Y-55877334D01*
X71748276Y-55778147D01*
X71787969Y-55745135D01*
X71899913Y-55652031D01*
X71904345Y-55648345D01*
X72034147Y-55492276D01*
X72133334Y-55315165D01*
X72135190Y-55309698D01*
X72135192Y-55309693D01*
X72196728Y-55128414D01*
X72196729Y-55128409D01*
X72198584Y-55122945D01*
X72199412Y-55117236D01*
X72199413Y-55117231D01*
X72227179Y-54925727D01*
X72227712Y-54922053D01*
X72229232Y-54864000D01*
X72210658Y-54661859D01*
X72209090Y-54656299D01*
X72157125Y-54472046D01*
X72157124Y-54472044D01*
X72155557Y-54466487D01*
X72144978Y-54445033D01*
X72068331Y-54289609D01*
X72065776Y-54284428D01*
X71944320Y-54121779D01*
X71867130Y-54050425D01*
X71800609Y-53988933D01*
X72555500Y-53988933D01*
X72555501Y-55739066D01*
X72556777Y-55745480D01*
X72565942Y-55791559D01*
X72570266Y-55813301D01*
X72577161Y-55823620D01*
X72577162Y-55823622D01*
X72614833Y-55880000D01*
X72626516Y-55897484D01*
X72710699Y-55953734D01*
X72784933Y-55968500D01*
X73659858Y-55968500D01*
X74535066Y-55968499D01*
X74570818Y-55961388D01*
X74597126Y-55956156D01*
X74597128Y-55956155D01*
X74609301Y-55953734D01*
X74619621Y-55946839D01*
X74619622Y-55946838D01*
X74683168Y-55904377D01*
X74693484Y-55897484D01*
X74749734Y-55813301D01*
X74764500Y-55739067D01*
X74764499Y-53988934D01*
X74754718Y-53939757D01*
X74752156Y-53926874D01*
X74752155Y-53926872D01*
X74749734Y-53914699D01*
X74723654Y-53875667D01*
X74700377Y-53840832D01*
X74693484Y-53830516D01*
X74609301Y-53774266D01*
X74535067Y-53759500D01*
X73660142Y-53759500D01*
X72784934Y-53759501D01*
X72749182Y-53766612D01*
X72722874Y-53771844D01*
X72722872Y-53771845D01*
X72710699Y-53774266D01*
X72700379Y-53781161D01*
X72700378Y-53781162D01*
X72661488Y-53807148D01*
X72626516Y-53830516D01*
X72570266Y-53914699D01*
X72555500Y-53988933D01*
X71800609Y-53988933D01*
X71799503Y-53987911D01*
X71795258Y-53983987D01*
X71790375Y-53980906D01*
X71790371Y-53980903D01*
X71628464Y-53878748D01*
X71623581Y-53875667D01*
X71435039Y-53800446D01*
X71429379Y-53799320D01*
X71429375Y-53799319D01*
X71241613Y-53761971D01*
X71241610Y-53761971D01*
X71235946Y-53760844D01*
X71230171Y-53760768D01*
X71230167Y-53760768D01*
X71128793Y-53759441D01*
X71032971Y-53758187D01*
X71027274Y-53759166D01*
X71027273Y-53759166D01*
X70939397Y-53774266D01*
X70832910Y-53792564D01*
X70642463Y-53862824D01*
X70468010Y-53966612D01*
X70463670Y-53970418D01*
X70463666Y-53970421D01*
X70364427Y-54057452D01*
X70315392Y-54100455D01*
X70189720Y-54259869D01*
X70187031Y-54264980D01*
X70187029Y-54264983D01*
X70161478Y-54313548D01*
X70095203Y-54439515D01*
X70035007Y-54633378D01*
X70011148Y-54834964D01*
X67146564Y-54834964D01*
X67130658Y-54661859D01*
X67129090Y-54656299D01*
X67077125Y-54472046D01*
X67077124Y-54472044D01*
X67075557Y-54466487D01*
X67064978Y-54445033D01*
X66988331Y-54289609D01*
X66985776Y-54284428D01*
X66864320Y-54121779D01*
X66787130Y-54050425D01*
X66719503Y-53987911D01*
X66715258Y-53983987D01*
X66710375Y-53980906D01*
X66710371Y-53980903D01*
X66548464Y-53878748D01*
X66543581Y-53875667D01*
X66355039Y-53800446D01*
X66349379Y-53799320D01*
X66349375Y-53799319D01*
X66161613Y-53761971D01*
X66161610Y-53761971D01*
X66155946Y-53760844D01*
X66150171Y-53760768D01*
X66150167Y-53760768D01*
X66048793Y-53759441D01*
X65952971Y-53758187D01*
X65947274Y-53759166D01*
X65947273Y-53759166D01*
X65859397Y-53774266D01*
X65752910Y-53792564D01*
X65562463Y-53862824D01*
X65388010Y-53966612D01*
X65383670Y-53970418D01*
X65383666Y-53970421D01*
X65284427Y-54057452D01*
X65235392Y-54100455D01*
X65109720Y-54259869D01*
X65107031Y-54264980D01*
X65107029Y-54264983D01*
X65081478Y-54313548D01*
X65015203Y-54439515D01*
X64955007Y-54633378D01*
X64931148Y-54834964D01*
X64944424Y-55037522D01*
X64945845Y-55043118D01*
X64945846Y-55043123D01*
X64986074Y-55201518D01*
X64994392Y-55234269D01*
X64996809Y-55239512D01*
X65034010Y-55320208D01*
X65079377Y-55418616D01*
X65095804Y-55441860D01*
X65179693Y-55560561D01*
X65202674Y-55627736D01*
X65185689Y-55696671D01*
X65134132Y-55745480D01*
X65064371Y-55758667D01*
X64998555Y-55732045D01*
X64987701Y-55722376D01*
X64585756Y-55320431D01*
X64551730Y-55258119D01*
X64555538Y-55190836D01*
X64578584Y-55122945D01*
X64583341Y-55090141D01*
X64607179Y-54925727D01*
X64607712Y-54922053D01*
X64609232Y-54864000D01*
X64590658Y-54661859D01*
X64589090Y-54656299D01*
X64537125Y-54472046D01*
X64537124Y-54472044D01*
X64535557Y-54466487D01*
X64524978Y-54445033D01*
X64448331Y-54289609D01*
X64445776Y-54284428D01*
X64324320Y-54121779D01*
X64247130Y-54050425D01*
X64179503Y-53987911D01*
X64175258Y-53983987D01*
X64170375Y-53980906D01*
X64170371Y-53980903D01*
X64008464Y-53878748D01*
X64003581Y-53875667D01*
X63815039Y-53800446D01*
X63809379Y-53799320D01*
X63809375Y-53799319D01*
X63621613Y-53761971D01*
X63621610Y-53761971D01*
X63615946Y-53760844D01*
X63610171Y-53760768D01*
X63610167Y-53760768D01*
X63508793Y-53759441D01*
X63412971Y-53758187D01*
X63407274Y-53759166D01*
X63407273Y-53759166D01*
X63319397Y-53774266D01*
X63212910Y-53792564D01*
X63022463Y-53862824D01*
X62848010Y-53966612D01*
X62843670Y-53970418D01*
X62843666Y-53970421D01*
X62744427Y-54057452D01*
X62695392Y-54100455D01*
X62569720Y-54259869D01*
X62567031Y-54264980D01*
X62567029Y-54264983D01*
X62541478Y-54313548D01*
X62475203Y-54439515D01*
X62415007Y-54633378D01*
X62391148Y-54834964D01*
X51424944Y-54834964D01*
X51454869Y-54699981D01*
X51457714Y-54689363D01*
X51475366Y-54633378D01*
X51574555Y-54318791D01*
X51578311Y-54308470D01*
X51588270Y-54284428D01*
X51727012Y-53949476D01*
X51731654Y-53939523D01*
X51749949Y-53904380D01*
X51911063Y-53594882D01*
X51916558Y-53585363D01*
X51929751Y-53564655D01*
X52102580Y-53293367D01*
X55045906Y-53293367D01*
X55055349Y-53473564D01*
X55057162Y-53480144D01*
X55057162Y-53480147D01*
X55086144Y-53585363D01*
X55103268Y-53647530D01*
X55187424Y-53807148D01*
X55191826Y-53812357D01*
X55191828Y-53812360D01*
X55299487Y-53939757D01*
X55299491Y-53939761D01*
X55303894Y-53944971D01*
X55309318Y-53949118D01*
X55309319Y-53949119D01*
X55441821Y-54050425D01*
X55441825Y-54050428D01*
X55447242Y-54054569D01*
X55453422Y-54057451D01*
X55453424Y-54057452D01*
X55521066Y-54088994D01*
X55610780Y-54130828D01*
X55688984Y-54148309D01*
X55781835Y-54169064D01*
X55781841Y-54169065D01*
X55786879Y-54170191D01*
X55792406Y-54170500D01*
X55925077Y-54170500D01*
X56059389Y-54155909D01*
X56230409Y-54098355D01*
X56385080Y-54005419D01*
X56395971Y-53995120D01*
X56511229Y-53886126D01*
X56511231Y-53886124D01*
X56516187Y-53881437D01*
X56617612Y-53732195D01*
X56649059Y-53653572D01*
X56682089Y-53570992D01*
X56682090Y-53570987D01*
X56684623Y-53564655D01*
X56714094Y-53386633D01*
X56704651Y-53206436D01*
X56677815Y-53109008D01*
X56658545Y-53039052D01*
X56656732Y-53032470D01*
X56572576Y-52872852D01*
X56568174Y-52867643D01*
X56568172Y-52867640D01*
X56460513Y-52740243D01*
X56460509Y-52740239D01*
X56456106Y-52735029D01*
X56450681Y-52730881D01*
X56318179Y-52629575D01*
X56318175Y-52629572D01*
X56312758Y-52625431D01*
X56306578Y-52622549D01*
X56306576Y-52622548D01*
X56226399Y-52585161D01*
X56149220Y-52549172D01*
X56033718Y-52523354D01*
X55978165Y-52510936D01*
X55978159Y-52510935D01*
X55973121Y-52509809D01*
X55967594Y-52509500D01*
X55834923Y-52509500D01*
X55700611Y-52524091D01*
X55529591Y-52581645D01*
X55374920Y-52674581D01*
X55369960Y-52679272D01*
X55369958Y-52679273D01*
X55305485Y-52740243D01*
X55243813Y-52798563D01*
X55142388Y-52947805D01*
X55139855Y-52954139D01*
X55139853Y-52954142D01*
X55077911Y-53109008D01*
X55077910Y-53109013D01*
X55075377Y-53115345D01*
X55074263Y-53122077D01*
X55051818Y-53257657D01*
X55045906Y-53293367D01*
X52102580Y-53293367D01*
X52125330Y-53257657D01*
X52131624Y-53248667D01*
X52368176Y-52940388D01*
X52375227Y-52931984D01*
X52637736Y-52645508D01*
X52645508Y-52637736D01*
X52931984Y-52375227D01*
X52940388Y-52368176D01*
X53248667Y-52131624D01*
X53257657Y-52125330D01*
X53585363Y-51916558D01*
X53594883Y-51911062D01*
X53939532Y-51731650D01*
X53949476Y-51727012D01*
X54308478Y-51578308D01*
X54318791Y-51574555D01*
X54689364Y-51457714D01*
X54699981Y-51454869D01*
X55079317Y-51370773D01*
X55090141Y-51368864D01*
X55475374Y-51318146D01*
X55486325Y-51317188D01*
X55554370Y-51314217D01*
X55837070Y-51301874D01*
X55861952Y-51303255D01*
X55864954Y-51303723D01*
X55864960Y-51303723D01*
X55873829Y-51305104D01*
X55882731Y-51303940D01*
X55882734Y-51303940D01*
X55904725Y-51301064D01*
X55921062Y-51300000D01*
X96471297Y-51300000D01*
X96490681Y-51301500D01*
G37*
G04 #@! TD.AperFunction*
M02*
